<svg width="1621" height="1106" viewBox="0 0 1621 1106" fill="none" xmlns="http://www.w3.org/2000/svg">
<rect x="0.709961" width="1620.29" height="1106" fill="white"/>
<path d="M174.905 719.125V664.681H1364.31V981.575H229.35V758.213L174.905 719.125Z" fill="#2C9C4E"/>
<path d="M1364.31 124.425H226.558V194.225L176.301 234.71V657.701L226.558 707.957V927.131H1364.31V124.425Z" fill="#4FB46D"/>
<rect x="320.091" y="190.037" width="53.0484" height="281.994" fill="#C4C4C4"/>
<rect x="426.187" y="190.037" width="53.0484" height="281.994" fill="#C4C4C4"/>
<rect x="532.285" y="190.037" width="53.0484" height="281.994" fill="#C4C4C4"/>
<rect x="638.38" y="190.037" width="53.0484" height="281.994" fill="#C4C4C4"/>
<rect x="744.478" y="190.037" width="53.0484" height="281.994" fill="#C4C4C4"/>
<rect x="269.833" y="240.294" width="580.74" height="131.225" fill="#5E6A70"/>
<rect x="292.171" y="700.977" width="731.509" height="86.5526" fill="#8A8A8A"/>
<rect x="1219.12" y="215.166" width="228.946" height="117.265" fill="#C4C4C4"/>
<rect x="1121.4" y="472.031" width="326.666" height="117.265" fill="#C4C4C4"/>
<rect x="1219.12" y="332.43" width="228.946" height="86.5526" fill="#5E6A70"/>
<rect x="1121.4" y="589.296" width="326.666" height="86.5526" fill="#5C5C5C"/>
<rect x="269.833" y="371.519" width="580.74" height="47.4643" fill="#2C2C2C"/>
<rect x="292.171" y="787.53" width="731.509" height="92.1366" fill="#2C2C2C"/>
<rect x="320.091" y="728.897" width="33.5042" height="33.5042" fill="#5C5C5C"/>
<rect x="373.139" y="728.897" width="33.5042" height="33.5042" fill="#5C5C5C"/>
<rect x="426.187" y="728.897" width="33.5042" height="33.5042" fill="#5C5C5C"/>
<rect x="479.236" y="728.897" width="33.5042" height="33.5042" fill="#5C5C5C"/>
<rect x="532.285" y="728.897" width="33.5042" height="33.5042" fill="#5C5C5C"/>
<rect x="585.333" y="728.897" width="33.5042" height="33.5042" fill="#5C5C5C"/>
<rect x="638.38" y="728.897" width="33.5042" height="33.5042" fill="#5C5C5C"/>
<rect x="691.43" y="728.897" width="33.5042" height="33.5042" fill="#5C5C5C"/>
<rect x="744.478" y="728.897" width="33.5042" height="33.5042" fill="#5C5C5C"/>
<rect x="797.526" y="728.897" width="33.5042" height="33.5042" fill="#5C5C5C"/>
<rect x="850.574" y="728.897" width="33.5042" height="33.5042" fill="#5C5C5C"/>
<rect x="903.624" y="728.897" width="33.5042" height="33.5042" fill="#5C5C5C"/>
<rect x="956.671" y="728.897" width="33.5042" height="33.5042" fill="#5C5C5C"/>
</svg>
