<svg width="2004" height="1861" viewBox="0 0 2004 1861" fill="none" xmlns="http://www.w3.org/2000/svg">
<rect width="2004" height="1861" fill="white"/>
<path d="M1195.07 1643.09L1147.1 1614.31V1125.9L1195.07 1154.66V1643.09Z" fill="#4B7C98"/>
<path d="M360.065 1140.85L312.067 1112.09V623.657L360.065 652.418V1140.85Z" fill="#4B7C98"/>
<path d="M360.065 1140.85L900.23 858.832L644.291 495.076L360.065 652.418V1140.85Z" fill="#23415B"/>
<path d="M1690.3 1344.1L1195.07 1643.09V1154.66L1690.3 855.663V1344.1Z" fill="#23415B"/>
<path d="M1194.02 1156.99L297 619.283V589.39L1706.14 819.227V849.119L1194.02 1156.99Z" fill="#91AAD0"/>
<path d="M1194.02 1127.1L297 589.389L809.14 281.514L1706.14 819.227L1194.02 1127.1Z" fill="#C7D4E8"/>
<path d="M1539.77 742.099C1539.77 744.38 1541.43 747.304 1543.28 748.36C1543.39 746.171 1541.71 743.249 1539.9 742.174L1539.77 742.099Z" fill="#210854"/>
<path d="M1558.63 738.158V497.797C1558.63 497.42 1558.59 497.042 1558.55 496.665C1558.55 496.665 1558.55 496.665 1558.57 496.665C1558.59 496.873 1558.61 497.08 1558.63 497.268V738.158Z" fill="url(#paint0_linear)"/>
<path d="M944.887 567.047L1145.72 683.843C1145.72 683.767 1191.04 649.236 1218.14 641.465L1004.67 517.372C980.775 526.858 956.372 541.002 932.459 559.259L944.887 567.047Z" fill="#9197D0"/>
<path d="M1145.98 683.843L1145.83 683.748C1147.6 682.353 1171.14 664.588 1193.96 652.122L1183.63 658.458C1181.46 659.778 1179.19 660.947 1177.12 662.381L1170.76 666.567C1166.54 669.378 1162.26 672.074 1158.17 675.092L1145.98 683.843ZM1143.62 683.843L1144.4 683.068L1144.66 683.22L1143.62 683.843ZM1059.85 633.903L944.793 567.179L944.867 567.029L944.887 567.047L1059.85 633.903Z" fill="#89BFE8"/>
<path d="M1145.83 683.748L1144.79 683.144L1144.66 683.22L1144.4 683.068L1144.49 682.975L1059.85 633.903L944.887 567.047L944.867 567.029L944.943 566.897C962.067 575.987 979.249 584.944 996.108 594.432L1021.51 608.538L1046.73 622.965C1063.57 632.489 1080.31 642.201 1096.95 652.14L1121.94 666.925C1130.03 671.659 1137.97 676.638 1145.96 681.484L1147.15 680.316L1149.13 678.788L1150.72 677.713L1157.03 673.433C1161.16 670.49 1165.58 667.888 1169.91 665.265L1176.46 661.306C1178.61 659.966 1180.93 658.873 1183.15 657.647L1196.6 650.5L1193.96 652.122C1171.14 664.588 1147.6 682.353 1145.83 683.748Z" fill="#649AD7"/>
<path d="M1218.14 641.466C1194.15 651.027 1169.69 665.247 1145.72 683.598C1145.72 688.727 1145.72 693.631 1145.72 698.515C1169.95 684.427 1194.21 670.339 1218.42 656.251C1218.42 651.273 1218.42 646.313 1218.42 641.352L1218.14 641.466Z" fill="#8679B2"/>
<path d="M944.887 567.047L932.044 559.578C931.968 564.576 931.968 569.518 931.968 574.459L1145.72 698.74C1145.72 693.631 1145.72 688.727 1145.72 683.843L944.887 567.047Z" fill="#595594"/>
<path d="M1060.53 506.83V595.073C1060.53 597.26 1061.97 599.447 1064.83 601.107C1070.56 604.445 1079.86 604.445 1085.6 601.107C1088.46 599.447 1089.88 597.26 1089.88 595.073V506.83H1060.53Z" fill="#8679B2"/>
<path d="M1144.81 596.864L1131.18 588.943V585.529L1144.81 593.451V596.864Z" fill="#DAE0F0"/>
<path d="M1147.98 602.39L1128.03 590.772V580.004L1147.98 591.602V602.39Z" fill="black"/>
<path d="M1162.18 606.954L1148.55 599.032V595.618L1162.18 603.54V606.954Z" fill="#DAE0F0"/>
<path d="M1165.33 612.479L1145.38 600.881V590.093L1165.33 601.71V612.479Z" fill="black"/>
<path d="M1179.53 617.063L1165.92 609.141V605.709L1179.53 613.649V617.063Z" fill="#DAE0F0"/>
<path d="M1182.7 622.569L1162.75 610.97V600.202L1182.7 611.8V622.569Z" fill="black"/>
<path d="M1229.55 365.725L861.02 151.391C858.945 150.184 857.021 149.807 855.419 150.089L844.819 155.935L850.817 167.195V409.912C850.817 416.476 855.381 424.453 861.02 427.715L1225.02 639.428L1226.94 648.255L1234.9 643.371C1237.81 642.956 1239.75 640.371 1239.75 636.11V383.528C1239.75 376.984 1235.19 369.006 1229.55 365.725Z" fill="#9197D0"/>
<path d="M1221 647.029L852.477 432.695C846.839 429.413 842.255 421.435 842.255 414.892V162.291C842.255 159.293 843.235 157.086 844.819 155.935C846.707 154.559 849.421 154.597 852.477 156.37L1221 370.704C1226.64 373.966 1231.21 381.944 1231.21 388.489V641.088C1231.21 647.652 1226.64 650.31 1221 647.029Z" fill="#DAE0F0"/>
<path d="M1226.93 385.999V628.962C1226.77 632.583 1224.19 633.979 1220.99 632.093L852.477 417.776C849.213 415.89 846.555 411.252 846.555 407.423V164.762C846.555 162.687 847.348 161.292 848.666 160.801L852.477 161.348L1220.99 375.664C1224.3 377.55 1226.93 382.208 1226.93 385.999Z" fill="#595594"/>
<path d="M1226.91 385.98V628.924L1223.1 628.282L854.57 413.967C851.327 412.081 848.666 407.441 848.666 403.632V160.763L852.457 161.31L1220.97 375.626C1224.29 377.531 1226.91 382.189 1226.91 385.98Z" fill="#6AACF4"/>
<path d="M1196.9 627.152L1183.27 619.23V615.816L1196.9 623.738V627.152Z" fill="#44456C"/>
<path d="M1181.29 617.836L1167.65 609.914V606.482L1181.29 614.422V617.836Z" fill="#44456C"/>
<path d="M1215.08 636.486C1215.08 639.844 1212.74 641.182 1209.86 639.524C1206.99 637.844 1204.65 633.771 1204.65 630.414C1204.65 627.076 1206.99 625.718 1209.86 627.378C1212.74 629.056 1215.08 633.13 1215.08 636.486Z" fill="#8679B2"/>
<path d="M1226.91 626.341L1223.1 625.7L854.57 411.364C851.327 409.479 848.666 404.858 848.666 401.029V387.413C876.409 374.533 942.586 353.712 1005.44 353.712C1150.66 353.712 1207.8 380.474 1226.83 384.848C1226.87 385.226 1226.91 385.603 1226.91 385.981V626.341Z" fill="url(#paint1_linear)"/>
<path d="M708.298 692.197L1003.14 863.683C1007.65 866.286 1014.42 866.569 1018.31 864.324L1136.7 807.635C1140.59 805.39 1144.53 755.903 1139.36 771.934L818.964 638.298C814.494 635.713 807.705 635.411 803.82 637.675L707.205 675.242C703.32 677.506 703.81 689.594 708.298 692.197Z" fill="#8785B2"/>
<path d="M708.298 684.049L1003.14 855.536C1007.65 858.138 1014.42 858.422 1018.31 856.159C1018.31 856.159 1152.51 776.253 1141.19 768.822L844.5 600.466C840.011 597.845 807.705 616.797 803.82 619.042L707.205 675.242C703.32 677.505 703.81 681.447 708.298 684.049Z" fill="#9197D0"/>
<path d="M820.039 638.26L802.745 628.188L811.835 622.927L829.11 632.978L820.039 638.26Z" fill="#44456C"/>
<path d="M841.519 650.744L824.226 640.674L833.316 635.411L850.592 645.464L841.519 650.744Z" fill="#44456C"/>
<path d="M801.916 648.802L784.622 638.749L799.577 630.056L816.851 640.089L801.916 648.802Z" fill="#44456C"/>
<path d="M823.359 661.286L806.083 651.235L821.058 642.54L838.332 652.593L823.359 661.286Z" fill="#44456C"/>
<path d="M1096.01 802.447L1081.05 811.16L1042.29 788.605V784.966L1096.01 798.788V802.447Z" fill="#44456C"/>
<path d="M809.874 656.346L794.899 665.039L767.158 648.916L782.131 640.201L809.874 656.346Z" fill="#44456C"/>
<path d="M782.169 677.939L749.695 659.061L764.668 650.368L797.144 669.246L782.169 677.939Z" fill="#44456C"/>
<path d="M964.953 784.249L947.659 774.198L962.633 765.483L979.908 775.536L964.953 784.249Z" fill="#44456C"/>
<path d="M1061.1 822.759L1046.12 831.452L1014.85 813.254V809.614L1061.1 819.1V822.759Z" fill="#44456C"/>
<path d="M770.986 691.763L732.231 669.226L747.186 660.513L785.961 683.05L770.986 691.763Z" fill="#44456C"/>
<path d="M792.466 704.247L775.192 694.196L790.129 685.483L807.423 695.534L792.466 704.247Z" fill="#44456C"/>
<path d="M964.254 804.145L946.96 794.094L961.935 785.399L979.211 795.45L964.254 804.145Z" fill="#44456C"/>
<path d="M1028.66 841.619L991.469 819.987V816.348L1043.63 829.265V832.905L1028.66 841.619Z" fill="#44456C"/>
<path d="M796.465 726.878L779.189 716.845L794.146 708.132L811.44 718.185L796.465 726.878Z" fill="#44456C"/>
<path d="M961.747 805.597L946.773 814.31L800.652 729.331V725.672L961.747 801.958V805.597Z" fill="#44456C"/>
<path d="M968.253 826.794L950.979 816.743V813.104L976.193 818.535V822.174L968.253 826.794Z" fill="#44456C"/>
<path d="M813.401 628.189H802.745V624.21H813.401V628.189Z" fill="#44456C"/>
<path d="M822.226 632.357H829.109V629.321H822.226V632.357Z" fill="#44456C"/>
<path d="M839.049 645.163H850.592V641.823H839.049V645.163Z" fill="#44456C"/>
<path d="M836.032 640.674H824.226V637.033H836.032V640.674Z" fill="#44456C"/>
<path d="M821.133 651.367H806.083V647.596H821.133V651.367Z" fill="#44456C"/>
<path d="M827.563 648.802H838.331V652.593H827.563V648.802Z" fill="#44456C"/>
<path d="M797.258 638.259H784.98V634.6H797.258V638.259Z" fill="#44456C"/>
<path d="M800.652 636.28H816.851V640.089H800.652V636.28Z" fill="#44456C"/>
<path d="M780.679 648.802H767.158V645.163H780.679V648.802Z" fill="#44456C"/>
<path d="M781.019 652.631H809.874V656.346H781.019V652.631Z" fill="#44456C"/>
<path d="M760.519 658.891H749.695V655.422H760.519V658.891Z" fill="#44456C"/>
<path d="M773.419 665.493H797.144V669.246H773.419V665.493Z" fill="#44456C"/>
<path d="M753.805 679.523H785.96V683.05H753.805V679.523Z" fill="#44456C"/>
<path d="M1073.14 777.31H1063.95V781.043H1073.14V777.31Z" fill="#44456C"/>
<path d="M788.525 692.009H807.423V695.535H788.525V692.009Z" fill="#44456C"/>
<path d="M786.885 690.443H775.192V694.196H786.885V690.443Z" fill="#44456C"/>
<path d="M820.039 634.6L802.745 624.549L811.835 619.268L829.11 629.321L820.039 634.6Z" fill="url(#paint2_linear)"/>
<path d="M841.519 647.086L824.226 637.033L833.316 631.772L850.592 641.823L841.519 647.086Z" fill="url(#paint3_linear)"/>
<path d="M1099.19 800.6L1081.9 790.547V786.889L1108.26 791.679V795.319L1099.19 800.6Z" fill="#44456C"/>
<path d="M1099.19 796.96L1081.9 786.889L1090.99 781.628L1108.26 791.679L1099.19 796.96Z" fill="url(#paint4_linear)"/>
<path d="M801.916 645.163L784.622 635.11L799.577 626.397L816.851 636.45L801.916 645.163Z" fill="url(#paint5_linear)"/>
<path d="M823.359 657.647L806.083 647.595L821.058 638.883L838.332 648.934L823.359 657.647Z" fill="url(#paint6_linear)"/>
<path d="M1038.11 786.172L1020.81 776.121V772.48L1053.08 773.82V777.459L1038.11 786.172Z" fill="#44456C"/>
<path d="M1038.11 782.513L1020.81 772.48L1035.79 763.767L1053.08 773.82L1038.11 782.513Z" fill="url(#paint7_linear)"/>
<path d="M1016.63 773.688L999.351 763.635V759.996L1031.6 761.334V764.975L1016.63 773.688Z" fill="#44456C"/>
<path d="M1016.63 770.029L999.351 759.996L1014.31 751.283L1031.6 761.334L1016.63 770.029Z" fill="url(#paint8_linear)"/>
<path d="M995.165 761.202L977.891 751.131V747.492L1010.14 748.85V752.489L995.165 761.202Z" fill="#44456C"/>
<path d="M995.165 757.545L977.891 747.492L992.846 738.799L1010.14 748.85L995.165 757.545Z" fill="url(#paint9_linear)"/>
<path d="M973.684 748.698L956.41 738.647V735.008L988.659 736.366V740.005L973.684 748.698Z" fill="#44456C"/>
<path d="M973.684 745.059L956.41 735.008L971.365 726.313L988.659 736.366L973.684 745.059Z" fill="url(#paint10_linear)"/>
<path d="M952.204 736.214L934.93 726.163V722.522L967.178 723.862V727.52L952.204 736.214Z" fill="#44456C"/>
<path d="M952.204 732.575L934.93 722.522L949.885 713.809L967.178 723.862L952.204 732.575Z" fill="url(#paint11_linear)"/>
<path d="M930.743 723.73L913.467 713.677V710.038L945.716 711.376V715.017L930.743 723.73Z" fill="#44456C"/>
<path d="M930.743 720.071L913.467 710.038L928.422 701.325L945.716 711.376L930.743 720.071Z" fill="url(#paint12_linear)"/>
<path d="M909.262 711.244L891.987 701.193V697.553L924.235 698.892V702.531L909.262 711.244Z" fill="#44456C"/>
<path d="M909.262 707.605L891.987 697.553L906.961 688.841L924.235 698.892L909.262 707.605Z" fill="url(#paint13_linear)"/>
<path d="M887.782 698.76L870.506 688.707V685.05L902.755 686.408V690.047L887.782 698.76Z" fill="#44456C"/>
<path d="M887.782 695.101L870.506 685.05L885.481 676.355L902.755 686.408L887.782 695.101Z" fill="url(#paint14_linear)"/>
<path d="M866.319 686.256L849.044 676.223V672.564L881.274 673.922V677.561L866.319 686.256Z" fill="#44456C"/>
<path d="M866.319 682.617L849.044 672.564L864 663.851L881.274 673.922L866.319 682.617Z" fill="url(#paint15_linear)"/>
<path d="M844.857 673.772L827.563 663.739V660.08L859.814 661.438V665.077L844.857 673.772Z" fill="#44456C"/>
<path d="M844.857 670.131L827.563 660.08L842.538 651.367L859.814 661.438L844.857 670.131Z" fill="url(#paint16_linear)"/>
<path d="M1096.01 798.788L1081.05 807.503L1042.29 784.966L1057.27 776.253L1096.01 798.788Z" fill="url(#paint17_linear)"/>
<path d="M809.874 652.687L794.899 661.4L767.158 645.257L782.131 636.562L809.874 652.687Z" fill="url(#paint18_linear)"/>
<path d="M1063.59 817.668L1046.29 807.615V811.254L1063.59 821.307L1078.54 812.594V808.955L1063.59 817.668Z" fill="#44456C"/>
<path d="M1078.54 808.955L1061.27 798.902L1046.46 807.521L1063.59 817.668L1078.54 808.955Z" fill="url(#paint19_linear)"/>
<path d="M782.169 674.3L749.695 655.422L764.668 646.709L797.144 665.605L782.169 674.3Z" fill="url(#paint20_linear)"/>
<path d="M987.999 793.999L970.706 783.947V787.607L987.999 797.64L1002.97 788.945V785.305L987.999 793.999Z" fill="#44456C"/>
<path d="M1002.97 785.305L985.679 775.252L970.706 783.947L987.999 793.999L1002.97 785.305Z" fill="url(#paint21_linear)"/>
<path d="M964.727 780.703L947.452 770.652V774.291L964.727 784.343L979.7 775.649V771.99L964.727 780.703Z" fill="#44456C"/>
<path d="M979.7 771.99L962.426 761.957L947.452 770.652L964.727 780.703L979.7 771.99Z" fill="url(#paint22_linear)"/>
<path d="M941.492 767.408L924.198 757.355V760.995L941.492 771.048L956.466 762.353V758.694L941.492 767.408Z" fill="#44456C"/>
<path d="M956.466 758.694L939.172 748.642L924.198 757.355L941.492 767.408L956.466 758.694Z" fill="url(#paint23_linear)"/>
<path d="M918.239 754.111L900.945 744.04V747.699L918.239 757.751L933.194 749.038V745.398L918.239 754.111Z" fill="#44456C"/>
<path d="M933.194 745.398L915.918 735.347L900.945 744.04L918.239 754.111L933.194 745.398Z" fill="url(#paint24_linear)"/>
<path d="M894.985 740.816L877.711 730.745V734.385L894.985 744.438L909.96 735.743V732.104L894.985 740.816Z" fill="#44456C"/>
<path d="M909.96 732.103L892.666 722.051L877.711 730.745L894.985 740.816L909.96 732.103Z" fill="url(#paint25_linear)"/>
<path d="M871.75 727.502L854.457 717.45V721.09L871.75 731.141L886.705 722.448V718.807L871.75 727.502Z" fill="#44456C"/>
<path d="M886.705 718.807L869.431 708.737L854.457 717.45L871.75 727.501L886.705 718.807Z" fill="url(#paint26_linear)"/>
<path d="M848.478 714.206L831.204 704.153V707.793L848.478 717.846L863.453 709.133V705.493L848.478 714.206Z" fill="#44456C"/>
<path d="M863.453 705.493L846.159 695.44L831.204 704.153L848.478 714.206L863.453 705.493Z" fill="url(#paint27_linear)"/>
<path d="M825.244 700.891L807.95 690.858V694.498L825.244 704.549L840.199 695.836V692.197L825.244 700.891Z" fill="#44456C"/>
<path d="M840.199 692.197L822.925 682.145L807.95 690.858L825.244 700.891L840.199 692.197Z" fill="url(#paint28_linear)"/>
<path d="M801.972 687.595L784.696 677.562V681.183L801.972 691.254L816.947 682.541V678.902L801.972 687.595Z" fill="#44456C"/>
<path d="M816.947 678.902L799.653 668.849L784.696 677.562L801.972 687.595L816.947 678.902Z" fill="url(#paint29_linear)"/>
<path d="M1011.03 807.407L993.75 797.356V800.995L1011.03 811.048L1026 802.354V798.694L1011.03 807.407Z" fill="#44456C"/>
<path d="M1026 798.694L1008.71 788.643L993.75 797.356L1011.03 807.407L1026 798.694Z" fill="url(#paint30_linear)"/>
<path d="M1061.1 819.1L1046.12 827.813L1014.85 809.614L1029.81 800.919L1061.1 819.1Z" fill="url(#paint31_linear)"/>
<path d="M770.986 688.104L732.231 665.568L747.186 656.854L785.961 679.411L770.986 688.104Z" fill="url(#paint32_linear)"/>
<path d="M792.466 700.608L775.192 690.557L790.129 681.844L807.423 691.895L792.466 700.608Z" fill="url(#paint33_linear)"/>
<path d="M985.717 812.99L968.442 802.939V806.596L985.717 816.649L1000.69 807.936V804.295L985.717 812.99Z" fill="#44456C"/>
<path d="M1000.69 804.295L983.416 794.244L968.442 802.939L985.717 812.99L1000.69 804.295Z" fill="url(#paint34_linear)"/>
<path d="M964.254 800.486L946.96 790.435V794.094L964.254 804.125L979.211 795.432V791.793L964.254 800.486Z" fill="#44456C"/>
<path d="M979.211 791.793L961.935 781.722L946.96 790.435L964.254 800.486L979.211 791.793Z" fill="url(#paint35_linear)"/>
<path d="M942.756 787.982L925.48 777.931V781.59L942.756 791.623L957.73 782.929V779.289L942.756 787.982Z" fill="#44456C"/>
<path d="M957.73 779.289L940.455 769.218L925.48 777.931L942.756 787.982L957.73 779.289Z" fill="url(#paint36_linear)"/>
<path d="M921.313 775.48L904.019 765.427V769.086L921.313 779.119L936.268 770.424V766.785L921.313 775.48Z" fill="#44456C"/>
<path d="M936.268 766.785L918.992 756.714L904.019 765.427L921.313 775.48L936.268 766.785Z" fill="url(#paint37_linear)"/>
<path d="M899.832 762.976L882.539 752.923V756.564L899.832 766.615L914.787 757.921V754.263L899.832 762.976Z" fill="#44456C"/>
<path d="M914.787 754.263L897.512 744.21L882.539 752.923L899.832 762.976L914.787 754.263Z" fill="url(#paint38_linear)"/>
<path d="M878.352 750.472L861.058 740.421V744.06L878.352 754.112L893.325 745.418V741.777L878.352 750.472Z" fill="#44456C"/>
<path d="M893.325 741.777L876.031 731.726L861.058 740.421L878.352 750.472L893.325 741.777Z" fill="url(#paint39_linear)"/>
<path d="M856.89 737.968L839.596 727.917V731.556L856.89 741.627L871.845 732.914V729.255L856.89 737.968Z" fill="#44456C"/>
<path d="M871.845 729.255L854.57 719.204L839.596 727.917L856.89 737.968L871.845 729.255Z" fill="url(#paint40_linear)"/>
<path d="M835.409 725.464L818.133 715.413V719.052L835.409 729.105L850.384 720.41V716.751L835.409 725.464Z" fill="#44456C"/>
<path d="M850.384 716.751L833.09 706.7L818.133 715.413L835.409 725.464L850.384 716.751Z" fill="url(#paint41_linear)"/>
<path d="M813.928 712.96L796.653 702.909V706.548L813.928 716.601L828.903 707.888V704.247L813.928 712.96Z" fill="#44456C"/>
<path d="M828.903 704.247L811.609 694.196L796.653 702.909L813.928 712.96L828.903 704.247Z" fill="url(#paint42_linear)"/>
<path d="M1028.66 837.96L991.469 816.348L1006.44 807.635L1043.63 829.265L1028.66 837.96Z" fill="url(#paint43_linear)"/>
<path d="M1063.76 797.602L1046.49 787.549V791.34L1063.76 801.241L1078.74 792.528V788.889L1063.76 797.602Z" fill="#44456C"/>
<path d="M1061.44 778.836L1046.49 787.549L1063.76 797.601L1078.74 788.889L1061.44 778.836Z" fill="url(#paint44_linear)"/>
<path d="M753.522 698.269L736.248 688.218V691.763L753.522 701.91L768.497 693.215V689.556L753.522 698.269Z" fill="#44456C"/>
<path d="M751.203 679.523L736.248 688.218L753.522 698.269L768.497 689.556L751.203 679.523Z" fill="url(#paint45_linear)"/>
<path d="M775.003 710.755L757.709 700.702V704.247L775.003 714.394L789.978 705.699V702.042L775.003 710.755Z" fill="#44456C"/>
<path d="M772.684 692.009L757.709 700.702L775.003 710.755L789.978 702.042L772.684 692.009Z" fill="url(#paint46_linear)"/>
<path d="M796.07 723.201L778.776 713.15V716.695L796.07 726.842L811.024 718.128V714.488L796.07 723.201Z" fill="#44456C"/>
<path d="M793.749 704.437L778.776 713.15L796.07 723.201L811.024 714.488L793.749 704.437Z" fill="url(#paint47_linear)"/>
<path d="M961.747 801.958L946.773 810.671L800.652 725.672L815.627 716.979L961.747 801.958Z" fill="url(#paint48_linear)"/>
<path d="M968.253 823.155L950.979 813.104L958.917 808.482L976.193 818.535L968.253 823.155Z" fill="url(#paint49_linear)"/>
<path d="M1040.94 804.503L1023.66 794.452V798.111L1040.94 808.144L1055.91 799.449V795.81L1040.94 804.503Z" fill="#44456C"/>
<path d="M1055.91 795.81L1038.63 785.757L1023.83 794.358L1040.94 804.503L1055.91 795.81Z" fill="url(#paint50_linear)"/>
<path d="M1018.31 791.358L1001.01 781.306V784.946L1018.31 794.999L1033.28 786.304V782.645L1018.31 791.358Z" fill="#44456C"/>
<path d="M1033.28 782.645L1015.99 772.594L1001.2 781.213L1018.31 791.358L1033.28 782.645Z" fill="url(#paint51_linear)"/>
<path d="M995.674 778.195L978.38 768.161V771.801L995.674 781.854L1010.65 773.141V769.502L995.674 778.195Z" fill="#44456C"/>
<path d="M1010.65 769.501L993.355 759.448L978.55 768.049L995.674 778.194L1010.65 769.501Z" fill="url(#paint52_linear)"/>
<path d="M973.025 765.05L955.749 754.998V758.638L973.025 768.709L987.999 759.996V756.356L973.025 765.05Z" fill="#44456C"/>
<path d="M988 756.356L970.724 746.303L955.919 754.904L973.025 765.049L988 756.356Z" fill="url(#paint53_linear)"/>
<path d="M950.394 751.904L933.118 741.853V745.492L950.394 755.545L965.369 746.851V743.211L950.394 751.904Z" fill="#44456C"/>
<path d="M965.369 743.211L948.075 733.14L933.27 741.759L950.394 751.904L965.369 743.211Z" fill="url(#paint54_linear)"/>
<path d="M927.743 738.761L910.449 728.69V732.347L927.743 742.4L942.718 733.687V730.048L927.743 738.761Z" fill="#44456C"/>
<path d="M942.718 730.048L925.424 719.995L910.619 728.614L927.743 738.761L942.718 730.048Z" fill="url(#paint55_linear)"/>
<path d="M905.112 725.596L887.818 715.545V719.204L905.112 729.237L920.069 720.542V716.883L905.112 725.596Z" fill="#44456C"/>
<path d="M920.069 716.883L902.793 706.85L887.988 715.451L905.112 725.596L920.069 716.883Z" fill="url(#paint56_linear)"/>
<path d="M882.463 712.453L865.188 702.382V706.039L882.463 716.092L897.438 707.397V703.738L882.463 712.453Z" fill="#44456C"/>
<path d="M897.438 703.738L880.162 693.687L865.357 702.306L882.463 712.453L897.438 703.738Z" fill="url(#paint57_linear)"/>
<path d="M859.832 699.287L842.556 689.254V692.895L859.832 702.947L874.807 694.234V690.594L859.832 699.287Z" fill="#44456C"/>
<path d="M874.807 690.595L857.513 680.542L842.726 689.143L859.832 699.288L874.807 690.595Z" fill="url(#paint58_linear)"/>
<path d="M837.201 686.142L819.907 676.091V679.731L837.201 689.783L852.156 681.089V677.449L837.201 686.142Z" fill="#44456C"/>
<path d="M852.156 677.449L834.882 667.378L820.077 675.997L837.201 686.143L852.156 677.449Z" fill="url(#paint59_linear)"/>
<path d="M814.532 672.999L797.258 662.946V666.585L814.532 676.638L829.507 667.944V664.286L814.532 672.999Z" fill="#44456C"/>
<path d="M829.507 664.286L812.231 654.233L797.426 662.852L814.532 672.999L829.507 664.286Z" fill="url(#paint60_linear)"/>
<path d="M1077.73 788.096L1060.44 778.045V774.385L1086.78 779.175V782.815L1077.73 788.096Z" fill="#44456C"/>
<path d="M1077.73 784.456L1060.44 774.385L1069.51 769.124L1086.78 779.175L1077.73 784.456Z" fill="url(#paint61_linear)"/>
<path d="M1056.25 775.592L1038.97 765.541V761.901L1065.32 766.671V770.313L1056.25 775.592Z" fill="#44456C"/>
<path d="M1056.25 771.934L1038.97 761.901L1048.03 756.62L1065.32 766.671L1056.25 771.934Z" fill="url(#paint62_linear)"/>
<path d="M1034.77 763.088L1017.49 753.037V749.397L1043.84 754.167V757.808L1034.77 763.088Z" fill="#44456C"/>
<path d="M1034.77 759.449L1017.49 749.397L1026.57 744.116L1043.84 754.167L1034.77 759.449Z" fill="url(#paint63_linear)"/>
<path d="M1013.29 750.586L996.014 740.515V736.893L1022.36 741.645V745.305L1013.29 750.586Z" fill="#44456C"/>
<path d="M1013.29 746.926L996.014 736.893L1005.09 731.612L1022.36 741.645L1013.29 746.926Z" fill="url(#paint64_linear)"/>
<path d="M991.827 738.082L974.553 728.029V724.371L1000.9 729.161V732.801L991.827 738.082Z" fill="#44456C"/>
<path d="M991.827 734.442L974.553 724.371L983.605 719.108L1000.9 729.161L991.827 734.442Z" fill="url(#paint65_linear)"/>
<path d="M970.346 725.578L953.072 715.527V711.867L979.437 716.657V720.297L970.346 725.578Z" fill="#44456C"/>
<path d="M970.346 721.919L953.072 711.867L962.161 706.606L979.437 716.657L970.346 721.919Z" fill="url(#paint66_linear)"/>
<path d="M948.866 713.074L931.592 703.022V699.363L957.956 704.153V707.793L948.866 713.074Z" fill="#44456C"/>
<path d="M948.866 709.415L931.592 699.363L940.662 694.102L957.956 704.153L948.866 709.415Z" fill="url(#paint67_linear)"/>
<path d="M927.403 700.57L910.129 690.519V686.86L936.476 691.65V695.271L927.403 700.57Z" fill="#44456C"/>
<path d="M927.403 696.912L910.129 686.86L919.2 681.58L936.476 691.649L927.403 696.912Z" fill="url(#paint68_linear)"/>
<path d="M905.923 688.066L888.649 677.997V674.375L915.013 679.147V682.787L905.923 688.066Z" fill="#44456C"/>
<path d="M905.923 684.409L888.649 674.375L897.719 669.094L915.013 679.147L905.923 684.409Z" fill="url(#paint69_linear)"/>
<path d="M884.462 675.564L867.168 665.493V661.871L893.533 666.623V670.283L884.462 675.564Z" fill="#44456C"/>
<path d="M884.462 671.905L867.168 661.871L876.259 656.59L893.533 666.623L884.462 671.905Z" fill="url(#paint70_linear)"/>
<path d="M863 663.06L845.706 652.989V649.349L872.052 654.119V657.779L863 663.06Z" fill="#44456C"/>
<path d="M863 659.401L845.706 649.349L854.778 644.068L872.052 654.119L863 659.401Z" fill="url(#paint71_linear)"/>
<path d="M766.034 767.313C764.28 759.864 761.866 751.547 758.584 742.269C761.187 744.116 763.733 746.399 766.242 748.964C766.316 751.113 766.354 753.32 766.354 755.583C766.354 759.355 766.26 763.278 766.034 767.313Z" fill="#BD5F9B"/>
<path d="M686.987 1105.35H662.222V1112.47C661.941 1114.55 663.14 1116.7 665.854 1118.28C670.684 1121.13 678.527 1121.13 683.375 1118.28C686.071 1116.7 687.269 1114.55 686.932 1112.47L686.987 1105.35Z" fill="#7465A6"/>
<path d="M683.375 1110.47C678.527 1113.3 670.684 1113.3 665.854 1110.47C661.025 1107.65 661.025 1103.04 665.854 1100.22C670.684 1097.39 678.527 1097.39 683.375 1100.22C688.204 1103.04 688.204 1107.65 683.375 1110.47Z" fill="#EFF2F9"/>
<path d="M864.707 1328.71C862.498 1335.77 857.781 1343.46 848.366 1348.8C841.758 1352.53 833.147 1354.76 824.069 1355.98C802.822 1358.94 779.274 1356.64 774.855 1356.64L773.526 1355.34C771.898 1350.74 773.976 1334.9 776.185 1321.38C776.54 1319.44 776.839 1317.55 777.214 1315.78C778.768 1306.91 780.152 1300.16 780.152 1300.16C780.152 1300.16 799.733 1291.88 817.461 1285.98C832.099 1281 845.501 1277.7 845.501 1282.02C845.501 1291.65 848.366 1298.35 848.366 1298.35L852.783 1301.37L856.546 1303.97L866.317 1310.65C866.317 1310.65 867.74 1319.13 864.707 1328.71Z" fill="#FECAC2"/>
<path d="M923.654 1341.18C914.744 1360.53 857.613 1363.6 850.612 1363.6C843.63 1363.6 824.237 1375.69 824.237 1375.69V1384.25C812.332 1392.91 799.715 1402.45 789.663 1405.06C784.29 1406.41 778.917 1406.02 773.826 1404.49C760.423 1400.66 749.753 1389.67 749.753 1387.93C749.753 1386.76 751.25 1381.59 752.804 1376.28C754.676 1370.09 756.68 1363.75 756.68 1363.75L767.443 1361.45L817.479 1350.52L837.414 1346.18C837.414 1346.18 846.55 1341.07 858.624 1334.82C878.091 1324.83 905.328 1311.95 914.669 1313.17C918.245 1313.83 920.454 1315.32 922.007 1317.44C922.811 1318.85 931.18 1324.75 923.654 1341.18Z" fill="#717171"/>
<path d="M1007.09 1426.29C1007.09 1426.29 995.405 1482.76 1001.77 1482.76C1008.13 1482.76 1053.06 1487.49 1075.28 1474.95C1097.52 1462.39 1117.98 1423.95 1117.98 1423.95L1075.28 1424.5L1007.09 1426.29Z" fill="#FECAC2"/>
<path d="M1080.84 1424.52L1079.14 1424.89H1076.85L1075.54 1424.52C1074.79 1424.1 1075.99 1423.8 1077.9 1424.03L1080.84 1424.52Z" fill="#4A3748"/>
<path d="M1131.53 1462.59C1122.49 1477.19 1063.41 1502.6 1030.28 1508.86C1027.43 1509.4 1024.91 1510.16 1022.85 1510.52C1004.02 1513.46 988.404 1505.84 984.362 1498.07L983.856 1497.05L983.331 1494.18C983.481 1484.47 987.823 1446.47 999.88 1448.92L1002.69 1450.36C1006.53 1454.11 1005.83 1462.59 1025.34 1461.65C1031.46 1461.37 1038.01 1460.94 1044.49 1460.14C1062.51 1457.99 1099.17 1445.24 1105.57 1431.93C1109.61 1423.44 1087.09 1427.12 1082.9 1425.31L1080.84 1424.52C1092.39 1421.73 1126.31 1419.56 1133.87 1423.95C1145.89 1430.93 1141.55 1446.45 1131.53 1462.59Z" fill="#CEE4DD"/>
<path d="M864.707 1328.71C862.498 1335.77 857.781 1343.46 848.366 1348.8C841.758 1352.53 833.147 1354.76 824.069 1355.98C802.822 1358.94 779.274 1356.64 774.855 1356.64L773.526 1355.34C771.898 1350.74 773.976 1334.9 776.185 1321.38C776.54 1319.44 776.839 1317.55 777.214 1315.78C778.768 1306.91 780.152 1300.16 780.152 1300.16C780.152 1300.16 799.733 1291.88 817.461 1285.98C832.099 1281 845.501 1277.7 845.501 1282.02C845.501 1291.65 848.366 1298.35 848.366 1298.35L852.783 1301.37L856.546 1303.97L866.317 1310.65C866.317 1310.65 867.74 1319.13 864.707 1328.71Z" fill="#FECAC2"/>
<path d="M1007.09 1426.29C1007.09 1426.29 995.405 1482.76 1001.77 1482.76C1008.13 1482.76 1053.06 1487.49 1075.28 1474.95C1097.52 1462.39 1117.98 1423.95 1117.98 1423.95L1075.28 1424.5L1007.09 1426.29Z" fill="#FECAC2"/>
<path d="M1133.23 1476.25C1126.95 1489.38 1080.84 1503.31 1080.84 1503.31C1080.84 1503.31 1057.03 1511.31 1053.32 1512.19L1022.12 1523.32C1001.88 1526.7 988.835 1511.16 988.835 1511.16L984.362 1498.07L984.51 1496.41C985.914 1494.9 995.986 1491.37 1008.79 1491.37C1013.43 1491.37 1023.05 1488.21 1034.47 1483.45C1036.98 1482.45 1039.55 1481.3 1042.2 1480.08C1060.59 1471.95 1081.06 1460.78 1091.21 1452.45C1093.79 1450.28 1095.7 1448.34 1096.73 1446.7C1104.89 1433.31 1171.53 1396.46 1133.23 1476.25Z" fill="#717171"/>
<path d="M1080.84 1424.52L1079.14 1424.89H1076.85L1075.54 1424.52C1074.79 1424.1 1075.99 1423.8 1077.9 1424.03L1080.84 1424.52Z" fill="#4A3748"/>
<path d="M1131.53 1462.59C1122.49 1477.19 1063.41 1502.6 1030.28 1508.86C1027.43 1509.4 1024.91 1510.16 1022.85 1510.52C1004.02 1513.46 988.404 1505.84 984.362 1498.07L983.856 1497.05L983.331 1494.18C983.481 1484.47 987.823 1446.47 999.88 1448.92L1002.69 1450.36C1006.53 1454.11 1005.83 1462.59 1025.34 1461.65C1031.46 1461.37 1038.01 1460.94 1044.49 1460.14C1062.51 1457.99 1099.17 1445.24 1105.57 1431.93C1109.61 1423.44 1087.09 1427.12 1082.9 1425.31L1080.84 1424.52C1092.39 1421.73 1126.31 1419.56 1133.87 1423.95C1145.89 1430.93 1141.55 1446.45 1131.53 1462.59Z" fill="#97978C"/>
<path d="M1067.16 1424.99C1067.16 1424.99 1046.36 1292.39 1064.18 1234.34C1080.73 1180.39 1083.63 1085.54 1061.56 1073.17C1041.94 1062.18 965.848 1159.53 965.848 1159.53L998.4 1441.57C998.4 1441.57 1046.36 1460.48 1067.16 1424.99Z" fill="#2A2B57"/>
<path d="M847.506 1279.4C847.506 1279.4 873.73 1134.05 887.17 1074.79C900.592 1015.56 864.989 1006.45 844.623 996.924C824.238 987.4 746.216 1013.93 746.216 1013.93L778.786 1295.97C778.786 1295.97 826.746 1314.91 847.506 1279.4Z" fill="#2A2B57"/>
<path d="M924.815 1326C918.955 1341.82 892.374 1350.31 863.828 1353.68C846.605 1355.7 834.176 1364.98 822.253 1373.11L820.474 1374.33C813.267 1379.16 806.134 1383.48 798.104 1385.35C795.166 1386.06 792.208 1386.29 789.343 1386.29C775.286 1385.99 763.081 1377.79 758.888 1370.15C757.633 1367.77 757.11 1365.47 757.558 1363.55C759.917 1353.89 767.499 1327.7 772.628 1322.75L776.185 1321.38C778.899 1322.11 780.152 1327.05 780.152 1327.05C787.66 1331.45 802.167 1333.9 822.401 1332.18C842.711 1330.45 851.324 1315.78 855.142 1306.69L856.546 1303.97C859.635 1299.07 862.218 1303.46 869.275 1304.46C877.362 1305.63 894.434 1298.27 910.344 1302.16C915.194 1303.39 918.881 1305.1 921.37 1307.21C927.099 1311.97 927.492 1318.64 924.815 1326Z" fill="#97978C"/>
<path d="M505.693 1597.89H530.44V1605.02C530.739 1607.09 529.522 1609.24 526.826 1610.83C521.996 1613.68 514.153 1613.68 509.305 1610.83C506.609 1609.24 505.393 1607.09 505.748 1605.02L505.693 1597.89Z" fill="#7465A6"/>
<path d="M509.305 1603.02C514.153 1605.85 521.996 1605.85 526.825 1603.02C531.637 1600.19 531.637 1595.59 526.825 1592.74C521.996 1589.91 514.153 1589.91 509.305 1592.74C504.457 1595.59 504.457 1600.19 509.305 1603.02Z" fill="#EFF2F9"/>
<path d="M531.992 1012.88V976.235C529.896 974.537 527.837 972.859 525.796 971.162V1018.08C569.581 1054.59 623.811 1086.39 686.107 1112.02V1104.18C626.412 1078.98 574.297 1048.2 531.992 1012.88ZM531.992 1106.82V1070.12C529.896 1068.42 527.837 1066.74 525.796 1065.03V1112.02C569.581 1148.55 623.811 1180.27 686.107 1205.98V1198.06C626.412 1172.92 574.297 1142.06 531.992 1106.82Z" fill="#9DC8F8"/>
<path d="M631.934 917.432L595.339 1068.55C595.339 1068.55 582.497 1080.43 578.754 1080.04C577.648 1079.6 577.499 1078.6 578.098 1076.64C581.43 1065.63 590.321 1059.8 592.549 1045.58C594.159 1035.21 613.515 960.205 623.885 920.318C627.086 908.06 620.591 900.874 611.118 906.137C606.832 908.512 601.965 911.208 596.687 914.151C549.814 940.309 469.583 985.779 460.204 995.774C446.858 1009.99 417.936 1046.24 417.936 1046.24C417.936 1046.24 412.845 1049.8 412.153 1047.56C411.816 1046.51 412.47 1044.13 415.166 1039.43C415.166 1039.43 435.607 1011.18 452.061 994.887L453.223 993.775L455.992 991.172L457.359 989.984L458.669 988.891L460.953 987.137L463.556 985.419L598.596 906.872L613.289 898.329L617.352 896.443C619.187 895.82 620.928 895.668 622.518 895.632C633.076 895.386 639.384 903.608 631.934 917.432Z" fill="#210854"/>
<path d="M623.884 920.318C613.515 960.205 594.159 1035.21 592.549 1045.58C590.32 1059.8 581.43 1065.63 578.097 1076.64C577.499 1078.6 577.648 1079.6 578.359 1079.92C574.86 1079.04 549.962 1072.3 553.071 1062.08C556.421 1051.09 565.294 1045.26 567.522 1031.04C569.037 1021.35 586.016 955.34 596.686 914.15C601.964 911.208 606.832 908.512 611.118 906.136C620.591 900.873 627.086 908.06 623.884 920.318Z" fill="#F1F3F9"/>
<path d="M622.518 895.632C620.928 895.556 619.187 895.82 617.352 896.443L613.289 898.328L598.596 906.872L463.556 985.419L461.609 986.645L459.305 988.361L457.359 989.983L455.992 991.172L453.223 993.774L452.061 994.887C435.607 1011.18 415.166 1039.43 415.166 1039.43C412.47 1044.13 411.816 1046.5 412.153 1047.56L388.827 1033.7C386.787 1034.08 385.683 1032.68 390.138 1024.89C390.138 1024.89 422.391 980.252 438.528 970.88L588.263 883.769C591.37 881.977 595.339 882.089 599.532 883.542L607.936 887.956L622.518 895.632Z" fill="#9197D0"/>
<path d="M482.573 1179.84C487.123 1184.52 494.368 1185.14 502.622 1180.75C487.123 1171.28 477.633 1164.83 477.633 1164.83C477.633 1171.54 479.485 1176.63 482.573 1179.84Z" fill="#595594"/>
<path d="M999.842 1195.23L877.717 1233.17L802.972 1290.84L723.977 1317.66L706.718 1299.2L696.515 1288.26L708.57 1189.21L712.426 1157.64L692.209 1081.21L681.428 1022.35C691.985 1021.48 700.97 1022.23 705.538 1025.33L999.842 1195.23Z" fill="#515252"/>
<path d="M768.621 725.012C768.621 725.012 748.068 736.138 740.094 731.896C732.55 727.935 724.95 724.088 724.032 723.636C723.939 723.578 722.198 723.938 719.129 724.597C699.285 728.766 624.372 744.324 613.608 744.456C602.601 744.569 597.304 746.813 589.966 739.704L587.065 736.61C580.437 728.652 600.823 704.551 611.848 692.556C615.799 688.35 618.494 685.597 618.494 685.597C620.684 686.766 627.798 689.236 637.045 691.877C655.596 697.138 682.72 703.041 694.606 699.817C712.446 694.951 721.469 699.759 721.469 699.759L770.269 670.49L792.546 663.549C792.546 663.549 807.745 667.888 819.127 670.604C830.527 673.225 839.867 709.416 832.604 707.719C825.342 706.003 819.876 687.067 819.876 687.067L768.621 725.012Z" fill="#FECAC2"/>
<path d="M780.396 682.089L830.003 722.843C831.218 725.39 833.952 727.124 836.966 727.124C841.215 727.124 844.623 723.786 844.623 719.637C844.623 716.036 842.02 712.962 838.613 712.283C825.752 697.855 789.942 671.132 789.942 671.132L780.396 682.089Z" fill="#FECAC2"/>
<path d="M825.005 720.958C825.005 720.958 812.612 718.449 803.664 720.958C794.679 723.447 775.342 734.311 767.087 733.064C758.813 731.82 741.311 729.311 741.311 729.311C741.311 729.311 763.942 703.834 768.641 702.154C773.32 700.496 789.643 707.171 797.506 707.171C805.367 707.171 816.898 707.587 821.597 712.187C826.296 716.771 825.005 720.958 825.005 720.958Z" fill="#FECAC2"/>
<path d="M523.981 1016.01L565.35 1033.49L595.414 1013.24C595.414 1013.24 673.154 964.448 696.535 1003.83C714.056 1033.32 907.032 886.56 892.075 1030.87C889.492 1056.08 916.392 1110.74 803.74 1110.74C768.865 1110.74 538.937 1220.16 516.343 1152.81C493.825 1085.45 522.222 1017.01 523.981 1016.01Z" fill="#2A2B57"/>
<path d="M559.641 1126.18C564.733 1084.85 588.074 1047.96 588.074 1047.96L783.092 1077.96C783.092 1077.96 1066.5 1007.77 1061.56 1088.77C1061.05 1097.52 1079.25 1124.49 1078.76 1134.35C1073.44 1141.74 1064.12 1128.32 1060.9 1137.41L1058.41 1139.74C1050.93 1146.97 1048.6 1148.72 1051.45 1144.95C1042.5 1149.25 1033.27 1153.1 1024.48 1157.68C1011.39 1164.49 999.523 1171.86 988.89 1180.93C989.976 1173.05 675.438 1227.65 643.559 1221.54C612.504 1215.58 553.707 1174.28 559.641 1126.18Z" fill="#2A2B57"/>
<path d="M694.83 688.671C691.63 686.879 631.428 749.453 581.28 717.884L576.843 641.919C579.745 642.37 593.429 642.88 595.638 605.652C596.387 593.017 604.379 588.999 615.087 589.434C622.612 589.754 631.428 592.187 640.096 595.544C659.02 602.747 676.88 613.893 676.88 613.893C676.88 613.893 676.281 620.588 675.962 628.83C675.607 640.353 675.831 654.856 679.237 658.27C682.195 661.154 686.912 669.188 690.413 676.261C693.988 683.39 696.422 689.556 694.83 688.671Z" fill="#FECAC2"/>
<path d="M742.433 869.436C729.893 900.931 726.522 962.317 742.639 993.888C758.757 1025.5 771.841 1099.89 771.841 1099.89C771.841 1099.89 768.716 1124.24 745.559 1133.99C745.522 1134.03 682.532 1148.44 678.358 1148.57C611.342 1151.78 515.37 1079.04 515.37 1079.04C515.37 1079.04 515.707 1013.45 546.257 983.59C569.019 961.298 552.976 865.758 529.708 821.986C506.366 778.139 520.068 654.762 529.708 635.224C554.512 584.908 597.565 619.929 597.565 619.929C597.565 619.929 573.942 637.299 610.726 659.439C670.402 695.384 676.055 653.366 676.055 653.366C676.055 653.366 750.708 705.248 759.299 713.545C765.552 719.731 768.472 732.613 769.053 748.964C769.258 754.697 769.202 760.863 768.847 767.313C767.985 785.455 747.637 856.366 742.433 869.436Z" fill="#DF5529"/>
<path d="M722.872 546.339C728.582 573.535 724.238 598.221 717.107 605.2C711.996 610.178 722.254 636.638 691.854 631.357C685.714 630.32 680.547 629.585 675.961 628.83C661.53 626.756 653.629 625.568 643.278 619.476C640.713 618.061 637.887 616.194 634.779 613.893C629.987 610.405 622.837 601.409 615.087 589.434C591.912 553.62 563.254 490.97 576.843 469.262C587.045 453.063 629.614 455.44 665.253 460.569C693.389 464.736 717.107 470.676 717.107 470.676L719.597 469.262C719.597 469.262 730.396 488.745 724.089 513.563C717.874 538.457 717.107 519.202 722.872 546.339Z" fill="#FECAC2"/>
<path d="M716.339 438.559C690.001 423.718 662.971 389.47 606.645 406.612C606.645 406.612 576.88 411.29 562.149 425.718C559.528 428.282 532.273 452.591 529.876 494.666C527.499 536.742 551.386 576.459 571.714 596.335C592.025 616.194 586.054 619.929 586.054 619.929C586.054 619.929 623.006 615.119 629.687 615.119C636.333 615.119 673.303 586.981 673.303 586.981C673.303 586.981 656.288 538.062 661.698 537.081C668.1 535.893 670.309 550.866 690.338 552.507C690.338 552.507 703.685 501.682 722.161 491.234C740.637 480.805 742.639 453.42 716.339 438.559Z" fill="#572F13"/>
<path d="M678.9 534.95C678.769 534.44 673.771 518.88 666.303 522.596C658.816 526.311 653.068 534.534 653.705 546.849C654.323 559.145 658.647 574.743 667.014 575.704C675.381 576.666 677.796 578.099 683.169 572.366C688.542 566.613 686.856 558.957 686.856 558.957L678.9 534.95Z" fill="#FDACA9"/>
<path d="M682.12 536.534C681.989 536.024 677.01 520.465 669.542 524.2C662.036 527.915 656.326 536.137 656.943 548.433C657.561 560.729 661.867 576.327 670.252 577.288C678.62 578.25 681.016 579.683 686.408 573.95C691.761 568.197 690.096 560.541 690.096 560.541L682.12 536.534Z" fill="#FECAC2"/>
<path d="M675.082 539.344C675.082 539.344 671.489 546.19 670.103 549.188C668.717 552.186 667.014 557.222 668.4 559.938C669.784 562.635 671.188 564.482 671.188 564.482C671.188 564.482 672.48 551.847 674.203 547.208C675.924 542.588 676.86 538.382 675.177 534.61C673.529 530.837 672.387 526.085 668.511 529.782C664.637 533.498 661.286 537.74 661.08 545.417C660.874 553.093 662.278 561.446 665.386 565.351C668.474 569.274 673.004 571.499 673.004 571.499C673.004 571.499 664.038 566.35 663.327 557.467C662.615 548.584 663.588 535.1 666.564 533.138C669.56 531.177 670.01 530.763 669.841 534.025C669.691 537.325 667.201 541.965 669.784 540.683C672.387 539.38 673.23 534.874 674.445 536.911C675.662 538.947 675.082 539.344 675.082 539.344Z" fill="#FDACA9"/>
<path d="M675.082 553.997L678.696 547.452C680.173 547.849 680.492 547.925 681.146 550.432C681.802 552.941 681.84 553.866 684.198 553.488C686.557 553.111 688.373 551.395 686.014 554.355C683.637 557.335 683.506 553.866 679.911 555.637C676.318 557.429 677.048 560.635 674.782 560.559C672.498 560.485 674.427 555.807 675.325 554.507L675.082 553.997Z" fill="#FECAC2"/>
<path d="M916.504 880.695C913.602 883.505 909.859 886.39 905.253 889.464C882.136 904.854 846.942 903.666 816.805 882.657C786.554 861.609 797.823 887.333 732.512 835.753C721.28 826.908 713.681 817.818 708.813 808.747C685.284 765.183 724.857 723.522 724.857 723.522C772.404 690.405 832.249 766.03 844.153 784.173C848.703 791.152 855.985 796.96 864.538 802.957C877.942 812.387 894.509 822.306 908.005 838.074C910.682 841.222 913.041 844.164 915.099 846.843C926.126 861.967 926.406 871.057 916.504 880.695Z" fill="#DF5529"/>
<path d="M609.976 577.741C609.976 577.741 650.372 676.111 621.714 709.227C593.055 742.344 580.588 742.702 580.588 757.185C580.588 771.651 593.055 780.571 593.055 780.571C593.055 780.571 502.659 757.753 525.404 696.139C547.1 637.449 576.095 636.6 580.289 623.249C588.225 597.957 572.687 582.946 572.687 582.946L609.976 577.741Z" fill="#572F13"/>
<path d="M708.57 1189.21L706.718 1299.2L696.515 1288.26L708.57 1189.21Z" fill="#F0F5FF"/>
<path d="M887.733 1631.8C887.62 1636.44 886.329 1639.46 884.232 1641.21C881.387 1643.61 877.043 1643.68 872.177 1640.85C863.585 1635.85 856.622 1623.71 856.622 1613.71C856.622 1611.17 857.07 1609 857.894 1607.26C858.924 1605.1 860.533 1603.62 862.518 1602.94C865.195 1602.04 868.527 1602.55 872.177 1604.66L876.743 1608.13C881.668 1612.73 885.542 1619.5 887.059 1626.09L887.713 1630.73L887.733 1631.8Z" fill="#C7CCE8"/>
<path d="M888.986 1624.26C888.986 1626.82 888.538 1628.99 887.713 1630.72L887.059 1626.08C885.542 1619.5 881.668 1612.73 876.744 1608.13L872.177 1604.66C868.527 1602.55 865.195 1602.04 862.536 1602.94C860.533 1603.62 858.924 1605.1 857.895 1607.26L857.857 1606.17C857.857 1600.42 860.178 1596.63 863.771 1595.42C866.317 1594.55 869.519 1594.97 873 1596.87C875.022 1598.04 876.557 1599.23 877.998 1600.59C882.903 1605.19 886.797 1611.96 888.294 1618.54C888.762 1620.48 888.986 1622.41 888.986 1624.26Z" fill="#210854"/>
<path d="M908.436 1612.94C908.436 1615.5 907.968 1617.67 907.145 1619.41L904.936 1622.35L902.726 1623.65L887.733 1632.36L887.713 1630.72C888.538 1628.99 888.986 1626.82 888.986 1624.26C888.986 1622.41 888.762 1620.48 888.294 1618.54C886.797 1611.96 882.903 1605.19 877.998 1600.59L873.43 1597.12C869.519 1594.97 866.317 1594.55 863.809 1595.4L880.675 1585.58C883.54 1583.07 887.957 1582.95 892.88 1585.8C901.472 1590.82 908.436 1602.96 908.436 1612.94Z" fill="#DAE0F0"/>
<path d="M907.182 1620.5C907.182 1624.82 905.872 1628.07 903.663 1629.89L901.472 1631.18L884.232 1641.21C886.329 1639.46 887.62 1636.44 887.733 1632.36L902.726 1623.65L904.916 1622.35L907.145 1619.41L907.182 1620.5Z" fill="#F1F3F9"/>
<path d="M515.725 1415.43C515.613 1420.05 514.321 1423.07 512.225 1424.84C509.38 1427.23 505.036 1427.31 500.169 1424.46C491.578 1419.48 484.613 1407.32 484.613 1397.32C484.613 1394.78 485.063 1392.61 485.886 1390.87C486.917 1388.72 488.527 1387.25 490.511 1386.57C493.188 1385.67 496.519 1386.16 500.169 1388.27L504.756 1391.74C509.66 1396.34 513.535 1403.11 515.052 1409.7L515.707 1414.33L515.725 1415.43Z" fill="#C7CCE8"/>
<path d="M516.98 1407.87C516.98 1410.43 516.53 1412.6 515.707 1414.33L515.052 1409.7C513.536 1403.11 509.66 1396.34 504.757 1391.74L500.169 1388.27C496.519 1386.16 493.188 1385.67 490.529 1386.57C488.527 1387.25 486.917 1388.72 485.886 1390.87L485.85 1389.78C485.85 1384.05 488.17 1380.26 491.784 1379.03C494.33 1378.16 497.512 1378.6 500.994 1380.48C503.016 1381.67 504.55 1382.84 505.992 1384.22C510.915 1388.82 514.789 1395.57 516.288 1402.17C516.755 1404.09 516.98 1406.04 516.98 1407.87Z" fill="#210854"/>
<path d="M536.429 1396.57C536.429 1399.13 535.979 1401.3 535.156 1403.04L532.928 1405.98L530.719 1407.24L515.725 1415.98L515.707 1414.33C516.53 1412.6 516.979 1410.43 516.979 1407.87C516.979 1406.04 516.755 1404.09 516.287 1402.17C514.789 1395.57 510.915 1388.82 505.992 1384.22L501.424 1380.73C497.512 1378.6 494.33 1378.16 491.802 1379.01L508.668 1369.2C511.533 1366.68 515.95 1366.55 520.873 1369.41C529.466 1374.43 536.429 1386.59 536.429 1396.57Z" fill="#DAE0F0"/>
<path d="M535.174 1404.11C535.174 1408.45 533.883 1411.68 531.675 1413.5L529.466 1414.81L512.225 1424.84C514.321 1423.07 515.613 1420.05 515.725 1415.98L530.719 1407.24L532.928 1405.98L535.156 1403.04L535.174 1404.11Z" fill="#F1F3F9"/>
<path d="M515.725 1631.8C515.613 1636.44 514.321 1639.46 512.225 1641.21C509.38 1643.61 505.036 1643.68 500.169 1640.85C491.578 1635.85 484.613 1623.71 484.613 1613.71C484.613 1611.17 485.063 1609 485.886 1607.26C486.917 1605.1 488.527 1603.62 490.511 1602.94C493.188 1602.04 496.519 1602.55 500.169 1604.66L504.756 1608.13C509.66 1612.73 513.535 1619.5 515.052 1626.09L515.707 1630.73L515.725 1631.8Z" fill="#C7CCE8"/>
<path d="M516.98 1624.26C516.98 1626.82 516.53 1628.99 515.707 1630.72L515.052 1626.08C513.536 1619.5 509.66 1612.73 504.757 1608.13L500.169 1604.66C496.519 1602.55 493.188 1602.04 490.529 1602.94C488.527 1603.62 486.917 1605.1 485.886 1607.26L485.85 1606.17C485.85 1600.42 488.17 1596.63 491.784 1595.42C494.33 1594.55 497.512 1594.97 500.994 1596.87C503.016 1598.04 504.55 1599.23 505.992 1600.59C510.915 1605.19 514.789 1611.96 516.288 1618.54C516.755 1620.48 516.98 1622.41 516.98 1624.26Z" fill="#210854"/>
<path d="M536.429 1612.94C536.429 1615.5 535.979 1617.67 535.156 1619.41L532.928 1622.35L530.719 1623.65L515.725 1632.36L515.707 1630.72C516.53 1628.99 516.979 1626.82 516.979 1624.26C516.979 1622.41 516.755 1620.48 516.287 1618.54C514.789 1611.96 510.915 1605.19 505.992 1600.59L501.424 1597.12C497.512 1594.97 494.33 1594.55 491.802 1595.4L508.668 1585.58C511.533 1583.07 515.95 1582.95 520.873 1585.8C529.466 1590.82 536.429 1602.96 536.429 1612.94Z" fill="#DAE0F0"/>
<path d="M535.174 1620.5C535.174 1624.82 533.883 1628.07 531.675 1629.89L529.466 1631.18L512.225 1641.21C514.321 1639.46 515.613 1636.44 515.725 1632.36L530.719 1623.65L532.928 1622.35L535.156 1619.41L535.174 1620.5Z" fill="#F1F3F9"/>
<path d="M887.733 1415.43C887.62 1420.05 886.329 1423.07 884.232 1424.84C881.387 1427.23 877.043 1427.31 872.177 1424.46C863.585 1419.48 856.622 1407.32 856.622 1397.32C856.622 1394.78 857.07 1392.61 857.894 1390.87C858.924 1388.72 860.533 1387.25 862.518 1386.57C865.195 1385.67 868.527 1386.16 872.177 1388.27L876.743 1391.74C881.668 1396.34 885.542 1403.11 887.059 1409.7L887.713 1414.33L887.733 1415.43Z" fill="#C7CCE8"/>
<path d="M888.986 1407.87C888.986 1410.43 888.538 1412.6 887.713 1414.33L887.059 1409.7C885.542 1403.11 881.668 1396.34 876.744 1391.74L872.177 1388.27C868.527 1386.16 865.195 1385.67 862.536 1386.57C860.533 1387.25 858.924 1388.72 857.895 1390.87L857.857 1389.78C857.857 1384.05 860.178 1380.26 863.771 1379.03C866.317 1378.16 869.519 1378.6 873 1380.48C875.022 1381.67 876.557 1382.84 877.998 1384.22C882.903 1388.82 886.797 1395.57 888.294 1402.17C888.762 1404.09 888.986 1406.04 888.986 1407.87Z" fill="#210854"/>
<path d="M908.436 1396.57C908.436 1399.13 907.968 1401.3 907.145 1403.04L904.936 1405.98L902.726 1407.24L887.733 1415.98L887.713 1414.33C888.538 1412.6 888.986 1410.43 888.986 1407.87C888.986 1406.04 888.762 1404.09 888.294 1402.17C886.797 1395.57 882.903 1388.82 877.998 1384.22L873.43 1380.73C869.519 1378.6 866.317 1378.16 863.809 1379.01L880.675 1369.2C883.54 1366.68 887.957 1366.55 892.88 1369.41C901.472 1374.43 908.436 1386.59 908.436 1396.57Z" fill="#DAE0F0"/>
<path d="M907.182 1404.11C907.182 1408.45 905.872 1411.68 903.663 1413.5L901.472 1414.81L884.232 1424.84C886.329 1423.07 887.62 1420.05 887.733 1415.98L902.726 1407.24L904.916 1405.98L907.145 1403.04L907.182 1404.11Z" fill="#F1F3F9"/>
<path d="M897.093 1362.58C895.239 1362.21 889.454 1357.27 887.077 1356.76C829.478 1344.57 762.763 1360.51 696.048 1399.21C629.071 1438.1 562.056 1499.94 504.251 1579.45C499.552 1585.9 498.149 1593.57 501.049 1596.46C503.109 1598.53 509.66 1600.89 511.046 1602.29C514.041 1605.27 519.88 1602.59 524.28 1596.53C579.071 1521.21 642.549 1462.59 706.044 1425.76C769.278 1389.04 832.492 1373.98 887.077 1385.52C891.458 1386.44 897.317 1382.35 900.18 1376.11C903.176 1369.64 901.772 1363.58 897.093 1362.58Z" fill="#707073"/>
<path d="M897.093 1585.27C839.494 1506.06 772.777 1444.4 706.062 1405.47C639.085 1366.43 572.089 1350.36 514.265 1362.58C511.888 1363.08 506.085 1368.02 504.251 1368.41C499.552 1369.39 498.149 1375.47 501.049 1381.69C504.025 1388.18 509.848 1392.27 514.265 1391.33C569.057 1379.75 632.552 1395 696.03 1432.01C759.263 1468.87 822.477 1527.32 877.063 1602.36C881.462 1608.4 887.283 1611.09 890.185 1608.21C891.682 1606.7 898.215 1604.34 900.18 1602.4C903.176 1599.4 901.772 1591.7 897.093 1585.27Z" fill="#707073"/>
<path d="M703.33 1417.73C698.163 1420.73 689.796 1420.73 684.61 1417.73C680.773 1415.52 679.78 1412.24 681.652 1409.47V1181.52L706.68 1196.06V1410.15C707.971 1412.73 706.867 1415.69 703.33 1417.73Z" fill="#4A4A4B"/>
<path d="M708.57 1189.21L696.515 1288.26L706.718 1299.2L706.399 1317.66L424.936 1155.34L424.3 1153.55L420.164 1151.66C375.407 1125.64 411.272 1065.87 411.272 1017.88C411.272 969.899 381.247 887.748 380.141 870.284C379.019 852.803 384.878 839.394 387.368 840.846L679.294 1010.65L681.428 1022.35L692.209 1081.21L708.851 1172.18L708.57 1189.21Z" fill="#949494"/>
<path d="M679.294 1010.65C679.294 1010.65 728.226 1141.97 726.56 1170.75C724.895 1199.55 693.484 1284.11 724.332 1302.07C755.201 1320.02 895.051 1220.88 917.833 1207.62C940.651 1194.38 1000.7 1183.37 1000.7 1200.83C1000.7 1218.29 970.678 1199.55 947.316 1213.13C923.954 1226.7 756.866 1347.52 712.109 1321.47C667.333 1295.45 703.199 1235.68 703.199 1187.7C703.199 1139.71 673.172 1057.56 672.068 1040.07C670.964 1022.63 676.786 1009.2 679.294 1010.65Z" fill="#363738"/>
<path d="M948.888 1101.78L912.273 1252.9C912.273 1252.9 899.45 1264.8 895.707 1264.4C894.62 1263.97 894.452 1262.97 895.051 1260.99C898.383 1249.99 907.275 1244.17 909.502 1229.95C911.132 1219.58 930.468 1144.57 940.857 1104.68C944.039 1092.43 937.544 1085.24 928.071 1090.5C923.785 1092.88 918.937 1095.58 913.658 1098.52C866.785 1124.66 786.536 1170.13 777.176 1180.14C763.811 1194.36 734.909 1230.61 734.909 1230.61C734.909 1230.61 729.78 1234.17 729.088 1231.93C728.768 1230.87 729.443 1228.5 732.119 1223.8C732.119 1223.8 752.542 1195.55 769.016 1179.25L770.175 1178.12L772.965 1175.54L774.313 1174.35L775.642 1173.24L777.906 1171.5L780.489 1169.79L915.531 1091.24L930.224 1082.69L934.306 1080.81C936.158 1080.17 937.881 1079.92 939.491 1080C947.503 1080.32 951.995 1088.96 948.888 1101.78Z" fill="#595594"/>
<path d="M940.857 1104.68C930.468 1144.57 911.132 1219.58 909.502 1229.95C907.275 1244.17 898.383 1249.99 895.051 1260.99C894.452 1262.97 894.621 1263.97 895.295 1264.29C891.831 1263.41 866.935 1256.67 870.042 1246.45C873.355 1235.44 882.267 1229.63 884.475 1215.39C885.992 1205.71 902.951 1139.71 913.658 1098.52C918.937 1095.58 923.785 1092.88 928.071 1090.5C937.544 1085.24 944.039 1092.43 940.857 1104.68Z" fill="#D4D6ED"/>
<path d="M939.491 1080C937.881 1079.92 936.158 1080.17 934.306 1080.81L930.224 1082.69L915.531 1091.24L780.489 1169.79L778.58 1171.01L776.278 1172.73L774.313 1174.35L772.965 1175.54L770.175 1178.12L769.015 1179.26C752.542 1195.55 732.119 1223.8 732.119 1223.8C729.442 1228.5 728.768 1230.87 729.087 1231.93L705.762 1218.05C703.742 1218.44 702.618 1217.05 707.092 1209.24C707.092 1209.24 739.346 1164.62 755.462 1155.23L905.197 1068.14C908.324 1066.33 912.273 1066.44 916.504 1067.91L924.871 1072.3L939.491 1080Z" fill="#9197D0"/>
<defs>
<linearGradient id="paint0_linear" x1="1365.82" y1="478.824" x2="1385.68" y2="623.694" gradientUnits="userSpaceOnUse">
<stop stop-color="#575194"/>
<stop offset="1" stop-color="#635F9A"/>
</linearGradient>
<linearGradient id="paint1_linear" x1="1034.18" y1="367.009" x2="1054.05" y2="511.877" gradientUnits="userSpaceOnUse">
<stop stop-color="#67A3EF"/>
<stop offset="1" stop-color="#73B1F5"/>
</linearGradient>
<linearGradient id="paint2_linear" x1="802.745" y1="626.944" x2="829.1" y2="626.944" gradientUnits="userSpaceOnUse">
<stop stop-color="#9197D0"/>
<stop offset="1" stop-color="#F0F5FF"/>
</linearGradient>
<linearGradient id="paint3_linear" x1="824.226" y1="639.428" x2="850.58" y2="639.428" gradientUnits="userSpaceOnUse">
<stop stop-color="#9197D0"/>
<stop offset="1" stop-color="#F0F5FF"/>
</linearGradient>
<linearGradient id="paint4_linear" x1="1081.9" y1="789.284" x2="1108.25" y2="789.284" gradientUnits="userSpaceOnUse">
<stop stop-color="#9197D0"/>
<stop offset="1" stop-color="#F0F5FF"/>
</linearGradient>
<linearGradient id="paint5_linear" x1="784.622" y1="635.789" x2="816.871" y2="635.789" gradientUnits="userSpaceOnUse">
<stop stop-color="#9197D0"/>
<stop offset="1" stop-color="#F0F5FF"/>
</linearGradient>
<linearGradient id="paint6_linear" x1="806.083" y1="648.275" x2="838.332" y2="648.275" gradientUnits="userSpaceOnUse">
<stop stop-color="#9197D0"/>
<stop offset="1" stop-color="#F0F5FF"/>
</linearGradient>
<linearGradient id="paint7_linear" x1="1020.81" y1="773.141" x2="1053.08" y2="773.141" gradientUnits="userSpaceOnUse">
<stop stop-color="#9197D0"/>
<stop offset="1" stop-color="#F0F5FF"/>
</linearGradient>
<linearGradient id="paint8_linear" x1="999.351" y1="760.655" x2="1031.6" y2="760.655" gradientUnits="userSpaceOnUse">
<stop stop-color="#9197D0"/>
<stop offset="1" stop-color="#F0F5FF"/>
</linearGradient>
<linearGradient id="paint9_linear" x1="977.891" y1="748.171" x2="1010.14" y2="748.171" gradientUnits="userSpaceOnUse">
<stop stop-color="#9197D0"/>
<stop offset="1" stop-color="#F0F5FF"/>
</linearGradient>
<linearGradient id="paint10_linear" x1="956.41" y1="735.687" x2="988.659" y2="735.687" gradientUnits="userSpaceOnUse">
<stop stop-color="#9197D0"/>
<stop offset="1" stop-color="#F0F5FF"/>
</linearGradient>
<linearGradient id="paint11_linear" x1="934.93" y1="723.183" x2="967.178" y2="723.183" gradientUnits="userSpaceOnUse">
<stop stop-color="#9197D0"/>
<stop offset="1" stop-color="#F0F5FF"/>
</linearGradient>
<linearGradient id="paint12_linear" x1="913.467" y1="710.697" x2="945.716" y2="710.697" gradientUnits="userSpaceOnUse">
<stop stop-color="#9197D0"/>
<stop offset="1" stop-color="#F0F5FF"/>
</linearGradient>
<linearGradient id="paint13_linear" x1="891.987" y1="698.213" x2="924.235" y2="698.213" gradientUnits="userSpaceOnUse">
<stop stop-color="#9197D0"/>
<stop offset="1" stop-color="#F0F5FF"/>
</linearGradient>
<linearGradient id="paint14_linear" x1="870.506" y1="685.729" x2="902.755" y2="685.729" gradientUnits="userSpaceOnUse">
<stop stop-color="#9197D0"/>
<stop offset="1" stop-color="#F0F5FF"/>
</linearGradient>
<linearGradient id="paint15_linear" x1="849.044" y1="673.243" x2="881.293" y2="673.243" gradientUnits="userSpaceOnUse">
<stop stop-color="#9197D0"/>
<stop offset="1" stop-color="#F0F5FF"/>
</linearGradient>
<linearGradient id="paint16_linear" x1="827.563" y1="660.759" x2="859.812" y2="660.759" gradientUnits="userSpaceOnUse">
<stop stop-color="#9197D0"/>
<stop offset="1" stop-color="#F0F5FF"/>
</linearGradient>
<linearGradient id="paint17_linear" x1="1042.29" y1="791.887" x2="1096.02" y2="791.887" gradientUnits="userSpaceOnUse">
<stop stop-color="#9197D0"/>
<stop offset="1" stop-color="#F0F5FF"/>
</linearGradient>
<linearGradient id="paint18_linear" x1="767.158" y1="648.972" x2="809.887" y2="648.972" gradientUnits="userSpaceOnUse">
<stop stop-color="#9197D0"/>
<stop offset="1" stop-color="#F0F5FF"/>
</linearGradient>
<linearGradient id="paint19_linear" x1="1046.46" y1="808.276" x2="1078.55" y2="808.276" gradientUnits="userSpaceOnUse">
<stop stop-color="#9197D0"/>
<stop offset="1" stop-color="#F0F5FF"/>
</linearGradient>
<linearGradient id="paint20_linear" x1="749.695" y1="660.513" x2="797.138" y2="660.513" gradientUnits="userSpaceOnUse">
<stop stop-color="#9197D0"/>
<stop offset="1" stop-color="#F0F5FF"/>
</linearGradient>
<linearGradient id="paint21_linear" x1="970.706" y1="784.626" x2="1002.97" y2="784.626" gradientUnits="userSpaceOnUse">
<stop stop-color="#9197D0"/>
<stop offset="1" stop-color="#F0F5FF"/>
</linearGradient>
<linearGradient id="paint22_linear" x1="947.452" y1="771.329" x2="979.7" y2="771.329" gradientUnits="userSpaceOnUse">
<stop stop-color="#9197D0"/>
<stop offset="1" stop-color="#F0F5FF"/>
</linearGradient>
<linearGradient id="paint23_linear" x1="924.198" y1="758.016" x2="956.465" y2="758.016" gradientUnits="userSpaceOnUse">
<stop stop-color="#9197D0"/>
<stop offset="1" stop-color="#F0F5FF"/>
</linearGradient>
<linearGradient id="paint24_linear" x1="900.945" y1="744.719" x2="933.194" y2="744.719" gradientUnits="userSpaceOnUse">
<stop stop-color="#9197D0"/>
<stop offset="1" stop-color="#F0F5FF"/>
</linearGradient>
<linearGradient id="paint25_linear" x1="877.711" y1="731.424" x2="909.96" y2="731.424" gradientUnits="userSpaceOnUse">
<stop stop-color="#9197D0"/>
<stop offset="1" stop-color="#F0F5FF"/>
</linearGradient>
<linearGradient id="paint26_linear" x1="854.457" y1="718.128" x2="886.705" y2="718.128" gradientUnits="userSpaceOnUse">
<stop stop-color="#9197D0"/>
<stop offset="1" stop-color="#F0F5FF"/>
</linearGradient>
<linearGradient id="paint27_linear" x1="831.204" y1="704.832" x2="863.453" y2="704.832" gradientUnits="userSpaceOnUse">
<stop stop-color="#9197D0"/>
<stop offset="1" stop-color="#F0F5FF"/>
</linearGradient>
<linearGradient id="paint28_linear" x1="807.95" y1="691.517" x2="840.199" y2="691.517" gradientUnits="userSpaceOnUse">
<stop stop-color="#9197D0"/>
<stop offset="1" stop-color="#F0F5FF"/>
</linearGradient>
<linearGradient id="paint29_linear" x1="784.696" y1="678.222" x2="816.945" y2="678.222" gradientUnits="userSpaceOnUse">
<stop stop-color="#9197D0"/>
<stop offset="1" stop-color="#F0F5FF"/>
</linearGradient>
<linearGradient id="paint30_linear" x1="993.75" y1="798.015" x2="1026" y2="798.015" gradientUnits="userSpaceOnUse">
<stop stop-color="#9197D0"/>
<stop offset="1" stop-color="#F0F5FF"/>
</linearGradient>
<linearGradient id="paint31_linear" x1="1014.85" y1="814.366" x2="1061.1" y2="814.366" gradientUnits="userSpaceOnUse">
<stop stop-color="#9197D0"/>
<stop offset="1" stop-color="#F0F5FF"/>
</linearGradient>
<linearGradient id="paint32_linear" x1="732.231" y1="672.49" x2="785.954" y2="672.49" gradientUnits="userSpaceOnUse">
<stop stop-color="#9197D0"/>
<stop offset="1" stop-color="#F0F5FF"/>
</linearGradient>
<linearGradient id="paint33_linear" x1="775.192" y1="691.216" x2="807.441" y2="691.216" gradientUnits="userSpaceOnUse">
<stop stop-color="#9197D0"/>
<stop offset="1" stop-color="#F0F5FF"/>
</linearGradient>
<linearGradient id="paint34_linear" x1="968.442" y1="803.618" x2="1000.69" y2="803.618" gradientUnits="userSpaceOnUse">
<stop stop-color="#9197D0"/>
<stop offset="1" stop-color="#F0F5FF"/>
</linearGradient>
<linearGradient id="paint35_linear" x1="946.96" y1="791.114" x2="979.209" y2="791.114" gradientUnits="userSpaceOnUse">
<stop stop-color="#9197D0"/>
<stop offset="1" stop-color="#F0F5FF"/>
</linearGradient>
<linearGradient id="paint36_linear" x1="925.48" y1="778.61" x2="957.729" y2="778.61" gradientUnits="userSpaceOnUse">
<stop stop-color="#9197D0"/>
<stop offset="1" stop-color="#F0F5FF"/>
</linearGradient>
<linearGradient id="paint37_linear" x1="904.019" y1="766.106" x2="936.268" y2="766.106" gradientUnits="userSpaceOnUse">
<stop stop-color="#9197D0"/>
<stop offset="1" stop-color="#F0F5FF"/>
</linearGradient>
<linearGradient id="paint38_linear" x1="882.539" y1="753.602" x2="914.787" y2="753.602" gradientUnits="userSpaceOnUse">
<stop stop-color="#9197D0"/>
<stop offset="1" stop-color="#F0F5FF"/>
</linearGradient>
<linearGradient id="paint39_linear" x1="861.058" y1="741.098" x2="893.325" y2="741.098" gradientUnits="userSpaceOnUse">
<stop stop-color="#9197D0"/>
<stop offset="1" stop-color="#F0F5FF"/>
</linearGradient>
<linearGradient id="paint40_linear" x1="839.596" y1="728.596" x2="871.863" y2="728.596" gradientUnits="userSpaceOnUse">
<stop stop-color="#9197D0"/>
<stop offset="1" stop-color="#F0F5FF"/>
</linearGradient>
<linearGradient id="paint41_linear" x1="818.133" y1="716.092" x2="850.382" y2="716.092" gradientUnits="userSpaceOnUse">
<stop stop-color="#9197D0"/>
<stop offset="1" stop-color="#F0F5FF"/>
</linearGradient>
<linearGradient id="paint42_linear" x1="796.653" y1="703.568" x2="828.902" y2="703.568" gradientUnits="userSpaceOnUse">
<stop stop-color="#9197D0"/>
<stop offset="1" stop-color="#F0F5FF"/>
</linearGradient>
<linearGradient id="paint43_linear" x1="991.469" y1="822.815" x2="1043.63" y2="822.815" gradientUnits="userSpaceOnUse">
<stop stop-color="#9197D0"/>
<stop offset="1" stop-color="#F0F5FF"/>
</linearGradient>
<linearGradient id="paint44_linear" x1="1046.49" y1="788.21" x2="1078.74" y2="788.21" gradientUnits="userSpaceOnUse">
<stop stop-color="#9197D0"/>
<stop offset="1" stop-color="#F0F5FF"/>
</linearGradient>
<linearGradient id="paint45_linear" x1="736.248" y1="688.897" x2="768.497" y2="688.897" gradientUnits="userSpaceOnUse">
<stop stop-color="#9197D0"/>
<stop offset="1" stop-color="#F0F5FF"/>
</linearGradient>
<linearGradient id="paint46_linear" x1="757.709" y1="701.381" x2="789.976" y2="701.381" gradientUnits="userSpaceOnUse">
<stop stop-color="#9197D0"/>
<stop offset="1" stop-color="#F0F5FF"/>
</linearGradient>
<linearGradient id="paint47_linear" x1="778.776" y1="713.809" x2="811.024" y2="713.809" gradientUnits="userSpaceOnUse">
<stop stop-color="#9197D0"/>
<stop offset="1" stop-color="#F0F5FF"/>
</linearGradient>
<linearGradient id="paint48_linear" x1="800.652" y1="763.825" x2="961.747" y2="763.825" gradientUnits="userSpaceOnUse">
<stop stop-color="#9197D0"/>
<stop offset="1" stop-color="#F0F5FF"/>
</linearGradient>
<linearGradient id="paint49_linear" x1="950.979" y1="815.818" x2="976.191" y2="815.818" gradientUnits="userSpaceOnUse">
<stop stop-color="#9197D0"/>
<stop offset="1" stop-color="#F0F5FF"/>
</linearGradient>
<linearGradient id="paint50_linear" x1="1023.83" y1="795.131" x2="1055.91" y2="795.131" gradientUnits="userSpaceOnUse">
<stop stop-color="#9197D0"/>
<stop offset="1" stop-color="#F0F5FF"/>
</linearGradient>
<linearGradient id="paint51_linear" x1="1001.2" y1="781.986" x2="1033.28" y2="781.986" gradientUnits="userSpaceOnUse">
<stop stop-color="#9197D0"/>
<stop offset="1" stop-color="#F0F5FF"/>
</linearGradient>
<linearGradient id="paint52_linear" x1="978.55" y1="768.822" x2="1010.65" y2="768.822" gradientUnits="userSpaceOnUse">
<stop stop-color="#9197D0"/>
<stop offset="1" stop-color="#F0F5FF"/>
</linearGradient>
<linearGradient id="paint53_linear" x1="955.919" y1="755.677" x2="988.001" y2="755.677" gradientUnits="userSpaceOnUse">
<stop stop-color="#9197D0"/>
<stop offset="1" stop-color="#F0F5FF"/>
</linearGradient>
<linearGradient id="paint54_linear" x1="933.27" y1="742.532" x2="965.352" y2="742.532" gradientUnits="userSpaceOnUse">
<stop stop-color="#9197D0"/>
<stop offset="1" stop-color="#F0F5FF"/>
</linearGradient>
<linearGradient id="paint55_linear" x1="910.619" y1="729.387" x2="942.719" y2="729.387" gradientUnits="userSpaceOnUse">
<stop stop-color="#9197D0"/>
<stop offset="1" stop-color="#F0F5FF"/>
</linearGradient>
<linearGradient id="paint56_linear" x1="887.988" y1="716.224" x2="920.071" y2="716.224" gradientUnits="userSpaceOnUse">
<stop stop-color="#9197D0"/>
<stop offset="1" stop-color="#F0F5FF"/>
</linearGradient>
<linearGradient id="paint57_linear" x1="865.357" y1="703.079" x2="897.439" y2="703.079" gradientUnits="userSpaceOnUse">
<stop stop-color="#9197D0"/>
<stop offset="1" stop-color="#F0F5FF"/>
</linearGradient>
<linearGradient id="paint58_linear" x1="842.726" y1="689.916" x2="874.808" y2="689.916" gradientUnits="userSpaceOnUse">
<stop stop-color="#9197D0"/>
<stop offset="1" stop-color="#F0F5FF"/>
</linearGradient>
<linearGradient id="paint59_linear" x1="820.077" y1="676.77" x2="852.141" y2="676.77" gradientUnits="userSpaceOnUse">
<stop stop-color="#9197D0"/>
<stop offset="1" stop-color="#F0F5FF"/>
</linearGradient>
<linearGradient id="paint60_linear" x1="797.426" y1="663.607" x2="829.508" y2="663.607" gradientUnits="userSpaceOnUse">
<stop stop-color="#9197D0"/>
<stop offset="1" stop-color="#F0F5FF"/>
</linearGradient>
<linearGradient id="paint61_linear" x1="1060.44" y1="776.78" x2="1086.79" y2="776.78" gradientUnits="userSpaceOnUse">
<stop stop-color="#9197D0"/>
<stop offset="1" stop-color="#F0F5FF"/>
</linearGradient>
<linearGradient id="paint62_linear" x1="1038.97" y1="764.276" x2="1065.33" y2="764.276" gradientUnits="userSpaceOnUse">
<stop stop-color="#9197D0"/>
<stop offset="1" stop-color="#F0F5FF"/>
</linearGradient>
<linearGradient id="paint63_linear" x1="1017.49" y1="751.773" x2="1043.83" y2="751.773" gradientUnits="userSpaceOnUse">
<stop stop-color="#9197D0"/>
<stop offset="1" stop-color="#F0F5FF"/>
</linearGradient>
<linearGradient id="paint64_linear" x1="996.014" y1="739.27" x2="1022.35" y2="739.27" gradientUnits="userSpaceOnUse">
<stop stop-color="#9197D0"/>
<stop offset="1" stop-color="#F0F5FF"/>
</linearGradient>
<linearGradient id="paint65_linear" x1="974.553" y1="726.766" x2="1000.91" y2="726.766" gradientUnits="userSpaceOnUse">
<stop stop-color="#9197D0"/>
<stop offset="1" stop-color="#F0F5FF"/>
</linearGradient>
<linearGradient id="paint66_linear" x1="953.072" y1="714.262" x2="979.427" y2="714.262" gradientUnits="userSpaceOnUse">
<stop stop-color="#9197D0"/>
<stop offset="1" stop-color="#F0F5FF"/>
</linearGradient>
<linearGradient id="paint67_linear" x1="931.592" y1="701.758" x2="957.946" y2="701.758" gradientUnits="userSpaceOnUse">
<stop stop-color="#9197D0"/>
<stop offset="1" stop-color="#F0F5FF"/>
</linearGradient>
<linearGradient id="paint68_linear" x1="910.129" y1="689.255" x2="936.484" y2="689.255" gradientUnits="userSpaceOnUse">
<stop stop-color="#9197D0"/>
<stop offset="1" stop-color="#F0F5FF"/>
</linearGradient>
<linearGradient id="paint69_linear" x1="888.649" y1="676.751" x2="915.003" y2="676.751" gradientUnits="userSpaceOnUse">
<stop stop-color="#9197D0"/>
<stop offset="1" stop-color="#F0F5FF"/>
</linearGradient>
<linearGradient id="paint70_linear" x1="867.168" y1="664.248" x2="893.523" y2="664.248" gradientUnits="userSpaceOnUse">
<stop stop-color="#9197D0"/>
<stop offset="1" stop-color="#F0F5FF"/>
</linearGradient>
<linearGradient id="paint71_linear" x1="845.706" y1="651.725" x2="872.061" y2="651.725" gradientUnits="userSpaceOnUse">
<stop stop-color="#9197D0"/>
<stop offset="1" stop-color="#F0F5FF"/>
</linearGradient>
</defs>
</svg>
