<svg width="583" height="2024" viewBox="0 0 583 2024" fill="none" xmlns="http://www.w3.org/2000/svg">
<path d="M34.5745 933.634C34.5745 915.234 39.5745 859.634 42.0745 834.134C63.2413 826.134 106.575 815.834 110.575 838.634C114.575 861.434 99.908 962.134 92.0747 1009.63C100.475 1046.83 95.5747 1247.47 92.0747 1343.13C92.0747 1343.13 96.0747 1355.87 94.0747 1355.63C85.5747 1354.63 89.0747 1336.63 81.5747 1341.13C77.3981 1343.64 79.0747 1354.63 80.5767 1373.13C82.5747 1379.63 86.5747 1388.63 83.5747 1389.63C78.0747 1387.13 73.5747 1366.63 71.5747 1355.63C70.1747 1360.63 71.5747 1371.13 71.5747 1371.13C74.0747 1378.13 75.5747 1385.13 75.0747 1385.13C71.3595 1385.34 67.0747 1375.13 65.5747 1373.13C64.0747 1371.13 61.462 1357.96 60.5747 1352.63C59.9878 1355.76 61.2099 1368.63 61.5747 1370.13C63.1973 1376.81 66.341 1381.83 65.5747 1382.13C60.5747 1384.13 55.0815 1370.63 54.5747 1367.13C53.0672 1356.72 54.9775 1344.13 52.5747 1344.13C50.1416 1344.13 51.5747 1358.13 48.5747 1357.63C48.5747 1319.63 54.0747 1306.13 60.5747 1300.63C67.0747 1295.13 42.0745 1102.13 34.5745 1058.63C27.0745 1015.13 34.5745 956.634 34.5745 933.634Z" fill="#C47844"/>
<path d="M532.358 946.084C531.742 927.694 524.882 872.293 521.53 846.891C500.107 839.604 456.453 830.761 453.219 853.682C449.984 876.604 468.016 976.756 477.436 1023.97C470.286 1061.43 481.904 1261.78 488.606 1357.28C488.606 1357.28 485.035 1370.14 487.026 1369.84C495.488 1368.56 491.387 1350.68 499.033 1354.93C503.292 1357.29 501.984 1368.34 501.103 1386.88C499.323 1393.44 495.627 1402.57 498.659 1403.47C504.072 1400.79 507.883 1380.15 509.513 1369.09C511.08 1374.04 510.033 1384.58 510.033 1384.58C507.768 1391.66 506.504 1398.7 507.004 1398.69C510.724 1398.77 514.664 1388.42 516.096 1386.38C517.528 1384.33 519.698 1371.07 520.407 1365.72C521.098 1368.83 520.308 1381.73 519.994 1383.24C518.595 1389.96 515.622 1395.09 516.398 1395.37C521.462 1397.2 526.5 1383.53 526.889 1380.01C528.047 1369.55 525.716 1357.04 528.118 1356.96C530.549 1356.87 529.586 1370.91 532.568 1370.31C531.295 1332.34 525.346 1319.03 518.665 1313.75C511.984 1308.47 530.506 1114.74 536.545 1071.01C542.584 1027.29 533.128 969.071 532.358 946.084Z" fill="#C47844"/>
<path d="M169.741 1927L144.741 1184H423.241L397.241 1927H406.741V1969.5H311.741V1927H324.741L283.241 1269L241.741 1927H249.241V1969.5H157.741V1927H169.741Z" fill="#0A1B2F" stroke="#0E596C" stroke-width="3"/>
<path d="M55.7412 652.998C68.9412 643.398 183.908 598.331 239.741 576.998C239.741 576.998 254.241 598.498 288.241 598.498C322.241 598.498 333.241 576.998 333.241 576.998C379.075 595.165 475.641 633.898 495.241 643.498C514.841 653.098 522.408 674.498 523.741 683.998L532.241 844.998H458.741L451.741 1201.5H108.241V844.998H33.2412C35.2412 784.998 42.5412 662.598 55.7412 652.998Z" fill="#AEE4FF"/>
<path d="M80.7419 2003.5L178.242 1969H231.242V1992C192.742 2005.33 110.942 2029.9 91.7419 2021.5C72.5419 2013.1 76.4086 2006 80.7419 2003.5Z" fill="#051C24"/>
<path d="M480.241 2004L382.741 1969.5H329.742V1992.5C368.242 2005.83 450.041 2030.4 469.241 2022C488.441 2013.6 484.575 2006.5 480.241 2004Z" fill="#051C24"/>
<path d="M358.749 492.952C386.569 516.883 446.1 492.978 439.36 440.979C465.831 455.161 502.596 420.533 499.867 397.216C541.477 402.57 573.61 370.266 544.012 308.286C592.519 294.437 597.245 199.715 544.012 187.604C571.85 117.642 519.63 84.1798 474.34 78.4073C481.01 64.6499 461.002 10.4128 412.418 1.90381C351.553 -8.75605 324.119 28.826 320.757 28.8225C317.784 28.8208 305.315 -18.8041 221.563 35.0859C194.782 1.90381 131.195 1.90381 131.195 58.1306C77.338 58.1306 53.4081 97.4762 68.5679 161.225C36.3499 149.377 3.04328 184.436 29.4747 232.727C30.6755 234.92 -6.73094 257.519 1.07156 289.5C12.5974 336.746 45.4461 344.56 67.5389 343.056C20.5363 385.245 54.5703 457.608 110.098 437.989C101.277 513.775 175.911 510.166 194.782 498.792L358.749 492.952Z" fill="#4E2C13"/>
<path d="M244.796 572.998L228.796 577.998C253.996 633.598 319.963 606.831 349.796 586.498L321.796 572.998V516.498H244.796V572.998Z" fill="#C47844" stroke="#C37743"/>
<path d="M243.796 572.134V521.134L320.796 516.134V535.134L243.796 572.134Z" fill="#995830"/>
<path d="M118.796 351.498C118.796 313.998 136.796 317.498 145.296 328.998C148.13 297.665 173.149 169.49 210.572 184C349.847 238.002 330.072 170.5 380.072 184C407.797 191.486 419.297 343.998 419.297 343.998C419.297 343.998 420.797 327.498 427.797 324.498C434.797 321.498 450.297 327.498 444.797 363.998C439.297 400.498 409.297 397.498 409.297 397.498C409.297 397.498 409.297 436.998 401.297 455.998C382.797 481.498 303.297 539.998 279.797 540.498C260.297 540.498 174.797 476.998 153.797 443.498C150.04 436.998 149.297 397.498 149.297 397.498C136.297 399.998 118.797 381.268 118.796 351.498Z" fill="#C47844" stroke="#C37743" stroke-width="2"/>
<path d="M257.515 391.77C257.94 390.751 257.459 389.58 256.44 389.154C255.42 388.729 254.249 389.21 253.824 390.23L257.515 391.77ZM268.235 409.962C269.338 409.909 270.19 408.971 270.136 407.868C270.083 406.765 269.146 405.913 268.043 405.966L268.235 409.962ZM294.931 405.969C293.829 406.048 292.999 407.005 293.078 408.106C293.157 409.208 294.113 410.038 295.215 409.959L294.931 405.969ZM310.396 394.737C309.986 393.712 308.821 393.214 307.796 393.625C306.771 394.035 306.273 395.2 306.683 396.225L310.396 394.737ZM253.824 390.23C252.49 393.426 251.41 398.456 253.126 402.753C254.014 404.975 255.631 406.938 258.191 408.256C260.709 409.553 264.018 410.165 268.235 409.962L268.043 405.966C264.279 406.148 261.727 405.578 260.022 404.7C258.357 403.842 257.387 402.636 256.841 401.269C255.689 398.385 256.355 394.549 257.515 391.77L253.824 390.23ZM295.215 409.959C298.368 409.734 303.007 408.81 306.469 406.612C308.224 405.498 309.815 403.968 310.648 401.899C311.5 399.783 311.451 397.368 310.396 394.737L306.683 396.225C307.425 398.075 307.339 399.408 306.937 400.406C306.517 401.451 305.639 402.401 304.326 403.235C301.653 404.931 297.763 405.767 294.931 405.969L295.215 409.959Z" fill="#934E20"/>
<path d="M191.296 297.245C198.796 288.078 220.596 273.545 247.796 288.745" stroke="#4E2C13" stroke-width="6" stroke-linecap="round" stroke-linejoin="round"/>
<path d="M314.796 289.745C327.796 284.245 357.796 277.345 373.796 293.745" stroke="#4E2C13" stroke-width="6" stroke-linecap="round" stroke-linejoin="round"/>
<circle cx="221.796" cy="344.134" r="13" fill="#45250E"/>
<circle cx="342.796" cy="344.134" r="13" fill="#45250E"/>
<circle cx="221.796" cy="345.134" r="4.5" fill="black" stroke="black"/>
<circle cx="342.796" cy="345.134" r="4.5" fill="black" stroke="black"/>
<circle cx="216.796" cy="342.134" r="6" fill="white"/>
<circle cx="337.796" cy="342.134" r="6" fill="white"/>
<path d="M223.79 220.505C196.545 220.983 179.928 173.753 179.928 173.753L273.487 169.091C273.487 169.091 266.213 219.761 223.79 220.505Z" fill="#4E2C13" stroke="#4E2C13"/>
<path d="M191.474 224.289C171.943 219.854 151.072 147.394 151.072 147.394L217.57 158.192C217.57 158.192 221.885 231.195 191.474 224.289Z" fill="#4E2C13" stroke="#4E2C13"/>
<path d="M411.843 318.058C396.503 303.841 393.072 182.185 393.072 182.185L446.125 223.827C446.125 223.827 435.729 340.195 411.843 318.058Z" fill="#4E2C13" stroke="#4E2C13"/>
<path d="M241.483 446.39C262.134 459.337 300.703 457 324.703 451.5" stroke="#934E20" stroke-width="8" stroke-linecap="round" stroke-linejoin="round"/>
<path d="M221.03 798.187L218.8 740H379.782L383.615 805.604L285.707 801.094L221.03 798.187Z" fill="#005391"/>
<path d="M173.762 878.464L172 822.507L352.934 834.467L356.458 898.583L264.471 888.311L173.762 878.464Z" fill="#0066AC"/>
<path d="M227.775 973.057L225.537 915.154L291.483 923.932L391.354 937.57L395.229 1003.42L227.775 973.057Z" fill="#0285C0"/>
</svg>
