<?xml version="1.0" encoding="utf-8"?>
<!-- Generator: Adobe Illustrator 24.0.1, SVG Export Plug-In . SVG Version: 6.00 Build 0)  -->
<svg version="1.1" id="Camada_1" xmlns="http://www.w3.org/2000/svg" xmlns:xlink="http://www.w3.org/1999/xlink" x="0px" y="0px"
	 viewBox="0 0 150 50.857" enable-background="new 0 0 150 50.857" xml:space="preserve">
<g>
	<polygon fill="#FFFFFF" points="37.783,17.245 33.876,14.225 42.152,5.852 49.857,10.311 45.7,15.571 41.789,13.226 	"/>
	<path fill="#FFFFFF" d="M85.754,13.598L82.68,50.857h-6.995l-7.353-16.981l-1.197,16.981h-7.773l2.069-32.327l7.323-1.9
		l7.499,16.669l1.395-18.125L85.754,13.598z"/>
	<path fill="#FFFFFF" d="M96.884,50.857h-7.773l3.343-38.45l8.162-2.13L96.884,50.857z"/>
	<path fill="#FFFFFF" d="M124.527,17.21l-6.485,1.029l-3.331,32.618h-7.772l3.069-31.363l-6.425,0.989l1.008-10.66l21.186-4.43
		L124.527,17.21z"/>
	<path fill="#FFFFFF" d="M136.492,14.767l-0.717,6.452l8.001-1.105l-1.427,12.468l-7.908,0.656l-0.627,5.654l11.745-0.667
		l-1.463,12.632H124.82l4.974-46.327L150,0l-1.483,12.747L136.492,14.767z"/>
	<polygon fill="#666666" points="34.441,43.89 34.174,50.857 53.449,50.857 53.908,43.002 42.185,43.542 	"/>
	<polygon fill="#8C8C8C" points="28.781,34.278 28.57,40.978 50.234,39.546 50.656,31.869 39.642,33.099 	"/>
	<polygon fill="#B2B2B2" points="35.248,22.952 34.98,29.885 42.876,28.834 54.834,27.201 55.298,19.317 	"/>
	<path fill="#FFFFFF" d="M28.831,30.972L12.882,44.695l15.433-0.54l-0.262,6.702H0v-5.891l16.002-12.899L0.071,33.666l0.001-5.729
		l29.033-3.923L28.831,30.972z"/>
</g>
</svg>
